<?xml version="1.0" standalone="no"?>
<!DOCTYPE svg PUBLIC "-//W3C//DTD SVG 20010904//EN"
 "http://www.w3.org/TR/2001/REC-SVG-20010904/DTD/svg10.dtd">
<svg version="1.0" xmlns="http://www.w3.org/2000/svg"
 width="1280.000000pt" height="1280.000000pt" viewBox="0 0 1280.000000 1280.000000"
 preserveAspectRatio="xMidYMid meet">
<metadata>
Created by potrace 1.14, written by Peter Selinger 2001-2017
</metadata>
<g transform="translate(0.000000,1280.000000) scale(0.100000,-0.100000)"
fill="#000000" stroke="none">
<path d="M4425 12787 c-90 -55 -185 -119 -208 -141 -15 -14 -30 -26 -33 -26
-10 0 -129 -130 -176 -192 -50 -66 -98 -146 -121 -200 -6 -16 -15 -28 -19 -28
-4 0 -8 -6 -8 -13 0 -18 -24 -67 -32 -67 -5 0 -8 -8 -8 -18 0 -10 -7 -27 -15
-38 -8 -12 -11 -24 -8 -28 3 -3 1 -6 -6 -6 -7 0 -10 -4 -6 -9 3 -5 0 -15 -7
-23 -7 -7 -15 -22 -16 -33 -2 -11 -10 -33 -17 -50 -19 -45 -51 -139 -81 -240
-14 -49 -32 -97 -40 -106 -8 -8 -14 -20 -14 -25 0 -21 -150 -154 -174 -154 -2
0 -17 -5 -33 -11 -15 -6 -29 -10 -30 -10 -2 0 -18 -6 -38 -15 -19 -8 -35 -12
-35 -9 0 3 -9 1 -20 -5 -11 -6 -62 -20 -113 -31 -51 -12 -101 -23 -112 -25
-11 -3 -40 -7 -65 -10 -25 -2 -58 -7 -75 -10 -16 -3 -50 -7 -75 -9 -43 -5 -59
-7 -142 -19 -21 -3 -54 -8 -73 -11 -55 -8 -106 -16 -129 -21 -11 -3 -37 -7
-56 -9 -19 -3 -46 -7 -60 -10 -14 -3 -50 -9 -80 -15 -30 -5 -66 -12 -80 -14
-14 -3 -50 -11 -80 -17 -91 -17 -103 -20 -150 -31 -25 -5 -58 -12 -75 -15 -16
-3 -38 -9 -47 -14 -10 -5 -18 -7 -18 -4 0 2 -25 -6 -56 -20 -152 -67 -213
-176 -183 -328 15 -78 17 -85 33 -115 8 -16 12 -32 9 -36 -4 -3 -1 -6 5 -6 7
0 12 -6 12 -13 0 -7 9 -23 20 -35 11 -12 20 -24 20 -27 0 -9 54 -68 155 -170
66 -67 123 -117 221 -194 5 -4 30 -21 55 -37 24 -16 46 -31 49 -34 5 -5 31
-20 75 -45 11 -6 39 -23 62 -38 24 -15 47 -27 53 -27 5 0 10 -4 10 -10 0 -5 6
-10 13 -10 7 0 22 -8 33 -17 10 -10 31 -24 45 -31 14 -8 49 -31 78 -53 28 -21
56 -39 61 -39 6 0 10 -4 10 -8 0 -4 12 -15 28 -24 41 -24 112 -100 118 -125 4
-13 10 -23 14 -23 5 0 16 -24 26 -52 25 -73 25 -203 -1 -402 -2 -16 -6 -57 -9
-90 -4 -34 -8 -73 -11 -86 -3 -14 -7 -45 -10 -70 -3 -25 -7 -52 -10 -60 -2 -8
-6 -37 -10 -65 -7 -61 -15 -112 -21 -145 -2 -14 -7 -50 -10 -80 -8 -77 -12
-105 -14 -105 -1 0 -4 -18 -6 -40 -11 -104 -12 -120 -14 -120 -1 0 -3 -18 -4
-40 -2 -22 -6 -62 -10 -90 -4 -27 -8 -68 -10 -90 -2 -22 -7 -71 -11 -110 -4
-38 -9 -83 -10 -100 -2 -16 -6 -64 -10 -105 -3 -41 -8 -95 -10 -120 -2 -25 -6
-79 -9 -120 -3 -41 -9 -120 -12 -175 -3 -55 -8 -127 -10 -160 -4 -58 -4 -70
-4 -97 1 -7 -2 -78 -6 -158 -9 -176 -9 -521 -1 -685 3 -66 7 -120 7 -120 1 0
3 -20 5 -45 5 -63 14 -153 20 -203 3 -23 7 -55 9 -72 10 -79 18 -135 27 -185
6 -30 12 -68 14 -85 3 -16 9 -52 14 -80 6 -27 13 -62 16 -77 3 -16 8 -40 11
-55 3 -16 6 -36 7 -45 1 -10 5 -18 10 -18 4 0 6 -4 3 -8 -3 -5 4 -44 16 -88
11 -43 22 -88 24 -98 2 -10 15 -60 30 -110 14 -50 27 -95 29 -101 1 -5 4 -17
8 -25 3 -8 17 -53 32 -100 14 -47 35 -107 45 -135 10 -27 30 -84 45 -125 15
-41 30 -84 35 -95 4 -11 27 -69 51 -130 23 -60 51 -130 62 -155 11 -25 20 -51
20 -57 0 -7 4 -13 8 -13 7 0 24 -49 21 -62 -1 -5 2 -8 8 -8 6 0 9 -3 8 -7 -1
-5 6 -26 16 -48 10 -22 29 -62 41 -90 13 -27 42 -90 65 -140 23 -49 49 -106
58 -125 9 -19 21 -38 26 -42 6 -4 8 -8 4 -8 -6 0 41 -98 68 -141 4 -8 9 -21
11 -29 1 -8 7 -16 12 -18 6 -2 11 -12 11 -23 0 -10 3 -19 8 -19 4 0 18 -24 32
-53 14 -28 41 -79 60 -112 19 -33 42 -72 49 -88 8 -15 18 -27 23 -27 4 0 8 -6
8 -14 0 -7 16 -40 36 -72 33 -55 238 -459 233 -459 -2 0 10 -30 55 -128 14
-32 26 -60 26 -63 0 -3 7 -20 15 -37 8 -18 20 -50 28 -72 8 -22 33 -92 57
-155 23 -63 43 -122 45 -130 2 -8 4 -15 5 -15 1 0 3 -7 5 -15 2 -8 10 -34 19
-58 8 -23 15 -43 14 -45 0 -1 9 -33 20 -72 25 -82 55 -193 66 -243 2 -9 13
-57 25 -105 12 -49 19 -93 15 -98 -3 -5 -1 -9 4 -9 5 0 9 -6 9 -12 2 -18 10
-68 17 -98 4 -14 8 -38 10 -55 3 -16 8 -46 11 -65 4 -19 8 -48 10 -65 1 -16 4
-32 5 -35 5 -12 4 -47 -2 -73 -4 -16 -3 -25 3 -22 5 4 6 -3 0 -17 -4 -13 -6
-32 -4 -43 2 -11 3 -30 3 -42 0 -13 -1 -29 -1 -35 -1 -36 11 -319 15 -349 2
-19 7 -74 11 -122 9 -119 9 -118 29 -129 33 -19 240 -26 386 -14 47 4 98 8
113 9 43 3 73 39 90 109 8 35 15 70 15 78 0 8 3 31 7 50 4 19 8 58 10 85 2 28
5 50 5 50 1 0 3 14 5 30 2 17 6 53 9 80 8 68 19 290 20 397 1 49 5 88 9 88 4
0 3 9 -3 20 -6 11 -7 20 -3 20 4 0 9 53 10 118 3 192 9 322 16 329 8 8 7 18
12 -132 2 -66 7 -174 9 -240 5 -125 14 -357 21 -580 2 -72 7 -141 10 -155 3
-14 12 -54 21 -90 8 -36 16 -74 18 -85 2 -11 10 -37 19 -59 10 -21 17 -42 17
-47 0 -8 13 -35 28 -58 5 -8 65 -12 202 -14 168 -1 269 9 292 30 23 21 47 95
54 168 3 33 7 83 9 110 3 28 7 77 10 110 3 33 8 80 10 105 2 25 4 45 5 45 1 0
3 25 6 55 14 177 30 345 33 345 1 0 4 38 6 85 9 183 23 318 40 400 3 14 8 39
10 55 3 17 8 38 11 47 3 9 7 27 9 40 4 19 11 49 21 91 1 4 3 9 4 12 1 3 3 8 4
13 11 41 31 99 38 106 4 6 8 16 8 24 0 8 11 36 24 62 13 27 22 51 19 54 -4 3
-2 6 4 6 6 0 16 15 24 33 7 17 35 66 62 107 168 257 394 429 652 496 170 45
313 56 515 40 47 -3 94 -8 106 -10 12 -2 45 -8 75 -11 67 -9 89 -13 114 -18
26 -6 103 -19 110 -18 2 0 19 -5 37 -10 18 -5 46 -12 62 -15 16 -3 73 -16 125
-30 53 -14 103 -27 111 -29 8 -2 48 -15 88 -28 39 -14 72 -23 72 -21 0 3 14
-2 30 -11 17 -9 30 -12 30 -8 0 4 5 2 12 -5 7 -7 18 -12 24 -12 7 0 25 -5 41
-12 15 -6 30 -12 33 -12 3 -1 21 -7 40 -15 137 -54 361 -154 366 -163 3 -4 13
-8 23 -8 10 0 24 -7 31 -15 7 -8 16 -12 21 -9 5 3 9 0 9 -7 0 -7 3 -9 7 -6 3
4 11 3 17 -2 6 -4 52 -30 101 -56 50 -27 92 -52 93 -57 2 -4 8 -8 13 -8 12 0
93 -52 97 -62 2 -5 10 -8 17 -8 7 0 15 -3 17 -7 2 -5 30 -28 63 -53 108 -82
255 -243 255 -280 0 -5 6 -13 13 -17 11 -7 60 -81 116 -175 13 -21 19 -38 14
-38 -4 0 -3 -4 3 -8 25 -16 93 -219 110 -327 3 -16 7 -43 10 -60 9 -60 15
-248 19 -575 4 -412 4 -413 68 -431 53 -15 274 -20 330 -7 49 11 89 29 82 36
-3 3 -1 10 4 16 8 10 29 75 38 121 8 36 11 50 13 50 1 0 3 11 5 25 2 14 6 35
8 46 3 12 8 37 11 55 3 19 8 52 12 74 4 22 8 57 8 77 1 21 3 38 6 38 3 0 6 18
7 40 2 22 5 52 8 68 3 15 8 54 11 87 3 33 8 62 10 64 11 12 18 -21 29 -149 3
-30 7 -66 10 -80 3 -14 8 -49 10 -77 3 -29 7 -66 10 -82 3 -16 7 -49 10 -72
15 -115 44 -251 61 -276 23 -37 55 -51 129 -58 89 -9 248 -8 300 1 22 4 48 7
57 6 31 -1 44 31 56 138 9 82 7 678 -2 910 -12 288 -15 377 -21 550 -11 333
-18 466 -31 640 -10 143 -11 155 -14 155 -1 0 -3 16 -5 35 -11 113 -17 161
-28 225 -3 17 -8 52 -12 79 -3 27 -8 52 -9 55 -2 3 -7 28 -10 55 -4 28 -13 79
-21 115 -15 74 -26 133 -30 171 -2 14 -4 25 -5 25 -1 0 -4 14 -6 30 -6 42 -14
94 -19 130 -3 17 -7 50 -9 75 -2 25 -5 45 -6 45 -1 0 -3 18 -6 40 -2 22 -6 60
-9 85 -16 138 -27 334 -26 475 0 66 1 120 2 120 0 0 2 34 4 75 4 106 14 285
20 350 3 31 7 87 10 125 3 39 7 86 10 105 2 19 6 55 9 80 7 70 16 142 22 180
2 19 7 55 10 80 8 63 11 85 14 85 1 0 3 11 4 25 2 14 7 48 11 75 5 28 9 59 11
70 1 11 7 45 13 75 6 30 13 75 16 99 3 23 8 47 11 52 3 5 0 9 -6 9 -6 0 -8 5
-4 12 11 18 14 54 14 208 1 140 -4 233 -14 295 -2 17 -8 55 -11 85 -4 30 -9
64 -12 75 -2 11 -6 31 -9 45 -3 14 -9 40 -14 59 -5 19 -7 38 -4 42 2 4 0 10
-6 14 -5 3 -10 16 -10 29 0 12 -3 26 -7 30 -4 4 -9 19 -11 33 -2 15 -10 42
-18 62 -9 20 -18 47 -20 61 -3 13 -8 27 -12 30 -4 3 -8 12 -10 20 -5 23 -45
123 -55 138 -6 7 -8 14 -6 17 6 5 103 -27 107 -36 2 -4 24 -5 50 -3 33 3 55
13 74 31 16 15 28 23 28 17 0 -5 9 9 19 31 10 22 17 49 15 60 -2 11 -6 36 -9
55 -5 39 -13 75 -15 75 -2 0 -11 38 -12 53 -1 6 -5 12 -10 12 -4 0 -7 3 -6 8
1 7 -2 16 -34 102 -66 174 -196 442 -257 530 -84 121 -233 253 -297 263 -10 1
-23 5 -29 9 -27 16 -215 -15 -215 -36 0 -5 -3 -7 -6 -3 -9 8 -86 -45 -124 -86
-65 -69 -85 -213 -43 -305 36 -79 35 -75 11 -68 -13 4 -30 9 -38 11 -18 5 -98
25 -120 30 -8 2 -15 4 -15 5 0 1 -9 3 -20 5 -11 2 -63 13 -115 25 -52 12 -102
23 -110 25 -63 14 -179 38 -195 40 -11 2 -20 4 -20 5 0 1 -9 3 -20 4 -11 2
-36 7 -55 11 -55 13 -133 16 -455 17 -283 0 -479 -5 -570 -16 -22 -3 -70 -8
-106 -11 -36 -4 -79 -8 -95 -10 -32 -5 -125 -16 -164 -20 -14 -1 -38 -5 -55
-8 -16 -4 -47 -9 -67 -12 -57 -8 -108 -16 -132 -21 -19 -4 -60 -11 -111 -19
-11 -2 -21 -4 -22 -5 -2 -2 -12 -4 -23 -5 -11 -1 -21 -3 -22 -5 -4 -2 -23 -6
-63 -13 -16 -3 -97 -21 -180 -42 -82 -20 -163 -38 -180 -40 -16 -2 -39 -6 -50
-8 -11 -2 -42 -8 -68 -11 -27 -4 -59 -9 -70 -12 -42 -8 -72 -13 -112 -18 -22
-3 -51 -8 -65 -11 -14 -3 -38 -7 -55 -9 -16 -2 -59 -9 -95 -15 -36 -5 -87 -13
-115 -16 -47 -6 -75 -10 -135 -20 -14 -2 -52 -7 -85 -10 -33 -4 -73 -8 -90
-11 -16 -2 -79 -6 -139 -9 -60 -3 -112 -6 -115 -7 -3 0 -8 0 -11 1 -3 1 -36 4
-75 6 -38 3 -81 7 -95 10 -14 3 -34 7 -45 9 -61 13 -120 28 -129 34 -6 4 -13
7 -16 7 -31 4 -128 49 -165 77 -64 48 -139 115 -178 159 -65 74 -66 75 -79
104 -6 14 -14 25 -19 25 -4 0 -14 19 -24 43 -16 40 -27 66 -60 141 -8 19 -15
38 -15 43 -1 4 -9 26 -20 48 -11 22 -19 43 -20 47 0 4 -5 19 -12 35 -6 15 -12
33 -14 38 -4 14 -84 236 -91 255 -3 8 -7 20 -9 25 -2 6 -24 75 -50 155 -25 80
-47 152 -49 160 -2 8 -17 62 -34 119 -17 57 -28 108 -25 113 3 4 0 8 -7 8 -7
0 -10 2 -7 6 3 3 0 25 -8 50 -7 24 -11 44 -8 44 3 0 0 8 -5 18 -5 9 -12 31
-15 47 -3 17 -11 53 -17 80 -6 28 -13 59 -15 70 -6 33 -12 60 -14 60 -1 0 -3
11 -5 25 -1 14 -10 61 -19 105 -30 152 -36 180 -42 230 -3 28 -8 58 -10 68 -2
9 -6 25 -8 35 -2 9 -7 46 -11 82 -10 86 -13 105 -15 105 -1 0 -3 20 -5 45 -2
25 -6 65 -9 90 -4 25 -9 65 -11 90 -2 25 -6 70 -9 100 -3 30 -8 93 -12 140 -8
98 -11 1120 -4 1120 3 0 5 24 5 54 0 30 -4 52 -9 49 -5 -4 -6 0 -1 7 5 8 10
59 11 114 1 56 5 196 9 311 12 386 9 472 -20 542 -15 36 -20 38 -50 20z m729
-11282 c3 -9 0 -15 -9 -15 -9 0 -12 6 -9 15 4 8 7 15 9 15 2 0 5 -7 9 -15z"/>
</g>
</svg>
