<svg
  width="1432"
  height="250"
  viewBox="0 0 1432 250"
  fill="none"
  xmlns="http://www.w3.org/2000/svg"
>
  <path
    d="M20.5919 246.673L0 3.327H21.1374L30.6833 153.042H31.2288L42.5476 3.327H59.1848L70.5035 153.517H71.049L80.5949 3.327H101.732L81.1404 246.673H63.0031L51.1389 110.741H50.5934L38.7292 246.673H20.5919Z"
    fill="url(#paint0_linear_27_14619)"
  />
  <path
    d="M107.869 246.673V3.327H158.19V56.5589H126.824V98.384H155.599V151.616H126.824V193.441H158.053V246.673H107.869Z"
    fill="url(#paint1_linear_27_14619)"
  />
  <path
    d="M251.902 94.5817H232.673C232.537 89.0368 232.173 84.0067 231.583 79.4914C231.014 74.9762 230.219 71.0947 229.196 67.847C228.196 64.52 226.98 61.9851 225.548 60.2424C224.116 58.4205 222.491 57.5095 220.673 57.5095C217.491 57.5095 214.798 60.2028 212.593 65.5894C210.411 70.9759 208.752 78.6993 207.615 88.7595C206.502 98.8197 205.945 110.9 205.945 125C205.945 139.892 206.513 152.369 207.65 162.429C208.809 172.41 210.479 179.935 212.661 185.005C214.843 189.995 217.468 192.49 220.537 192.49C222.287 192.49 223.855 191.738 225.241 190.233C226.628 188.649 227.832 186.391 228.855 183.46C229.878 180.529 230.707 177.004 231.344 172.885C232.003 168.687 232.446 163.973 232.673 158.745L251.902 159.221C251.674 169.518 250.845 180.014 249.413 190.708C247.981 201.323 245.947 211.145 243.31 220.176C240.697 229.127 237.458 236.336 233.594 241.801C229.73 247.267 225.241 250 220.127 250C213.718 250 207.968 245.208 202.877 235.623C197.808 226.038 193.797 211.938 190.842 193.322C187.91 174.707 186.444 151.933 186.444 125C186.444 97.9088 187.944 75.0951 190.944 56.5589C193.944 37.9436 197.99 23.8831 203.081 14.3774C208.172 4.79246 213.854 0 220.127 0C224.537 0 228.594 2.09917 232.298 6.29752C236.003 10.4959 239.253 16.635 242.049 24.7148C244.845 32.7155 247.095 42.5776 248.799 54.3013C250.504 66.025 251.538 79.4518 251.902 94.5817Z"
    fill="url(#paint2_linear_27_14619)"
  />
  <path
    d="M260.502 246.673V3.327H290.639C295.821 3.327 300.356 6.61439 304.242 13.1892C308.129 19.7639 311.152 29.23 313.311 41.5875C315.47 53.9449 316.55 68.7579 316.55 86.0266C316.55 103.454 315.436 118.148 313.209 130.109C311.004 142.071 307.902 151.101 303.901 157.201C299.924 163.3 295.276 166.35 289.958 166.35H271.957V115.019H286.139C288.367 115.019 290.264 114.068 291.833 112.167C293.424 110.187 294.64 107.058 295.481 102.78C296.344 98.5029 296.776 92.9183 296.776 86.0266C296.776 79.0558 296.344 73.392 295.481 69.0352C294.64 64.5992 293.424 61.3514 291.833 59.2918C290.264 57.153 288.367 56.0836 286.139 56.0836H279.457V246.673H260.502ZM301.413 134.981L318.868 246.673H298.276L281.23 134.981H301.413Z"
    fill="url(#paint3_linear_27_14619)"
  />
  <path
    d="M324.63 246.673V3.327H374.95V56.5589H343.585V98.384H372.359V151.616H343.585V193.441H374.814V246.673H324.63Z"
    fill="url(#paint4_linear_27_14619)"
  />
  <path
    d="M402.489 246.673H382.033L405.08 3.327H430.99L454.037 246.673H433.581L418.308 70.3422H417.762L402.489 246.673ZM398.67 150.665H437.127V200.095H398.67V150.665Z"
    fill="url(#paint5_linear_27_14619)"
  />
  <path
    d="M450.039 56.5589V3.327H510.724V56.5589H489.723V246.673H471.04V56.5589H450.039Z"
    fill="url(#paint6_linear_27_14619)"
  />
  <path
    d="M517.858 246.673V3.327H568.179V56.5589H536.814V98.384H565.588V151.616H536.814V193.441H568.042V246.673H517.858Z"
    fill="url(#paint7_linear_27_14619)"
  />
  <path
    d="M596.706 246.673V3.327H645.799V56.5589H615.661V98.384H642.799V151.616H615.661V246.673H596.706Z"
    fill="url(#paint8_linear_27_14619)"
  />
  <path
    d="M652.771 246.673V3.327H703.092V56.5589H671.727V98.384H700.501V151.616H671.727V193.441H702.955V246.673H652.771Z"
    fill="url(#paint9_linear_27_14619)"
  />
  <path
    d="M730.63 246.673H710.174L733.221 3.327H759.131L782.178 246.673H761.722L746.449 70.3422H745.903L730.63 246.673ZM726.812 150.665H765.268V200.095H726.812V150.665Z"
    fill="url(#paint10_linear_27_14619)"
  />
  <path
    d="M778.181 56.5589V3.327H838.865V56.5589H817.864V246.673H799.182V56.5589H778.181Z"
    fill="url(#paint11_linear_27_14619)"
  />
  <path
    d="M887.32 3.327H906.275V159.221C906.275 177.757 905.002 193.798 902.457 207.343C899.934 220.81 896.411 231.226 891.888 238.593C887.365 245.881 882.115 249.525 876.137 249.525C870.114 249.525 864.841 245.881 860.318 238.593C855.795 231.226 852.272 220.81 849.75 207.343C847.249 193.798 845.999 177.757 845.999 159.221V3.327H864.955V153.517C864.955 161.042 865.432 167.776 866.387 173.717C867.341 179.579 868.66 184.173 870.341 187.5C872.046 190.827 873.978 192.49 876.137 192.49C878.319 192.49 880.251 190.827 881.933 187.5C883.615 184.173 884.933 179.579 885.888 173.717C886.842 167.776 887.32 161.042 887.32 153.517V3.327Z"
    fill="url(#paint12_linear_27_14619)"
  />
  <path
    d="M915.284 246.673V3.327H945.422C950.604 3.327 955.138 6.61439 959.025 13.1892C962.911 19.7639 965.934 29.23 968.094 41.5875C970.253 53.9449 971.332 68.7579 971.332 86.0266C971.332 103.454 970.219 118.148 967.991 130.109C965.786 142.071 962.684 151.101 958.684 157.201C954.706 163.3 950.058 166.35 944.74 166.35H926.739V115.019H940.922C943.149 115.019 945.047 114.068 946.615 112.167C948.206 110.187 949.422 107.058 950.263 102.78C951.127 98.5029 951.559 92.9183 951.559 86.0266C951.559 79.0558 951.127 73.392 950.263 69.0352C949.422 64.5992 948.206 61.3514 946.615 59.2918C945.047 57.153 943.149 56.0836 940.922 56.0836H934.24V246.673H915.284ZM956.195 134.981L973.651 246.673H953.059L936.012 134.981H956.195Z"
    fill="url(#paint13_linear_27_14619)"
  />
  <path
    d="M979.412 246.673V3.327H1029.73V56.5589H998.368V98.384H1027.14V151.616H998.368V193.441H1029.6V246.673H979.412Z"
    fill="url(#paint14_linear_27_14619)"
  />
  <path
    d="M1125.9 125C1125.9 152.091 1124.39 174.945 1121.37 193.56C1118.34 212.096 1114.26 226.157 1109.13 235.741C1103.99 245.247 1098.26 250 1091.94 250C1085.58 250 1079.83 245.208 1074.69 235.623C1069.58 225.958 1065.51 211.858 1062.49 193.322C1059.49 174.707 1057.99 151.933 1057.99 125C1057.99 97.9088 1059.49 75.0951 1062.49 56.5589C1065.51 37.9436 1069.58 23.8831 1074.69 14.3774C1079.83 4.79246 1085.58 0 1091.94 0C1098.26 0 1103.99 4.79246 1109.13 14.3774C1114.26 23.8831 1118.34 37.9436 1121.37 56.5589C1124.39 75.0951 1125.9 97.9088 1125.9 125ZM1106.4 125C1106.4 110.425 1105.84 98.1464 1104.73 88.1654C1103.64 78.1052 1102.01 70.5006 1099.85 65.3517C1097.72 60.1236 1095.08 57.5095 1091.94 57.5095C1088.81 57.5095 1086.16 60.1236 1084 65.3517C1081.86 70.5006 1080.24 78.1052 1079.12 88.1654C1078.03 98.1464 1077.49 110.425 1077.49 125C1077.49 139.575 1078.03 151.893 1079.12 161.953C1080.24 171.934 1081.86 179.539 1084 184.767C1086.16 189.916 1088.81 192.49 1091.94 192.49C1095.08 192.49 1097.72 189.916 1099.85 184.767C1102.01 179.539 1103.64 171.934 1104.73 161.953C1105.84 151.893 1106.4 139.575 1106.4 125Z"
    fill="url(#paint15_linear_27_14619)"
  />
  <path
    d="M1134.67 246.673V3.327H1183.76V56.5589H1153.63V98.384H1180.76V151.616H1153.63V246.673H1134.67Z"
    fill="url(#paint16_linear_27_14619)"
  />
  <path
    d="M1227.59 246.673L1207 3.327H1228.13L1237.68 153.042H1238.23L1249.54 3.327H1266.18L1277.5 153.517H1278.05L1287.59 3.327H1308.73L1288.14 246.673H1270L1258.14 110.741H1257.59L1245.73 246.673H1227.59Z"
    fill="url(#paint17_linear_27_14619)"
  />
  <path
    d="M1314.87 246.673V3.327H1365.19V56.5589H1333.82V98.384H1362.6V151.616H1333.82V193.441H1365.05V246.673H1314.87Z"
    fill="url(#paint18_linear_27_14619)"
  />
  <path
    d="M1374.59 246.673V3.327H1404.86C1410.18 3.327 1414.65 5.82225 1418.26 10.8127C1421.9 15.8032 1424.64 22.8533 1426.48 31.9629C1428.34 41.0726 1429.27 51.8061 1429.27 64.1635C1429.27 73.1147 1428.7 81.2738 1427.57 88.6407C1426.45 96.0076 1424.89 102.186 1422.86 107.177C1420.84 112.088 1418.48 115.494 1415.77 117.395V119.772C1418.77 120.168 1421.5 122.822 1423.95 127.733C1426.41 132.565 1428.36 139.259 1429.82 147.814C1431.27 156.29 1432 166.271 1432 177.757C1432 191.065 1431 202.907 1429 213.284C1427.02 223.661 1424.2 231.82 1420.54 237.761C1416.89 243.702 1412.52 246.673 1407.45 246.673H1374.59ZM1393.54 193.916H1402.41C1405.59 193.916 1407.98 191.857 1409.57 187.738C1411.16 183.539 1411.95 177.361 1411.95 169.202C1411.95 163.498 1411.58 158.666 1410.83 154.705C1410.08 150.745 1409.01 147.734 1407.62 145.675C1406.26 143.615 1404.61 142.586 1402.68 142.586H1393.54V193.916ZM1393.54 101.711H1401.32C1402.98 101.711 1404.44 100.8 1405.71 98.9781C1406.99 97.1562 1407.98 94.5421 1408.68 91.1359C1409.41 87.6505 1409.77 83.4126 1409.77 78.4221C1409.77 70.8967 1409 65.1537 1407.45 61.193C1405.91 57.1531 1403.95 55.1331 1401.59 55.1331H1393.54V101.711Z"
    fill="url(#paint19_linear_27_14619)"
  />
  <defs>
    <linearGradient
      id="paint0_linear_27_14619"
      x1="0"
      y1="125"
      x2="1432"
      y2="125"
      gradientUnits="userSpaceOnUse"
    >
      <stop stop-color="white" stop-opacity="0.3" />
      <stop offset="0.5" stop-color="white" />
      <stop offset="1" stop-color="white" stop-opacity="0.3" />
    </linearGradient>
    <linearGradient
      id="paint1_linear_27_14619"
      x1="0"
      y1="125"
      x2="1432"
      y2="125"
      gradientUnits="userSpaceOnUse"
    >
      <stop stop-color="white" stop-opacity="0.3" />
      <stop offset="0.5" stop-color="white" />
      <stop offset="1" stop-color="white" stop-opacity="0.3" />
    </linearGradient>
    <linearGradient
      id="paint2_linear_27_14619"
      x1="0"
      y1="125"
      x2="1432"
      y2="125"
      gradientUnits="userSpaceOnUse"
    >
      <stop stop-color="white" stop-opacity="0.3" />
      <stop offset="0.5" stop-color="white" />
      <stop offset="1" stop-color="white" stop-opacity="0.3" />
    </linearGradient>
    <linearGradient
      id="paint3_linear_27_14619"
      x1="0"
      y1="125"
      x2="1432"
      y2="125"
      gradientUnits="userSpaceOnUse"
    >
      <stop stop-color="white" stop-opacity="0.3" />
      <stop offset="0.5" stop-color="white" />
      <stop offset="1" stop-color="white" stop-opacity="0.3" />
    </linearGradient>
    <linearGradient
      id="paint4_linear_27_14619"
      x1="0"
      y1="125"
      x2="1432"
      y2="125"
      gradientUnits="userSpaceOnUse"
    >
      <stop stop-color="white" stop-opacity="0.3" />
      <stop offset="0.5" stop-color="white" />
      <stop offset="1" stop-color="white" stop-opacity="0.3" />
    </linearGradient>
    <linearGradient
      id="paint5_linear_27_14619"
      x1="0"
      y1="125"
      x2="1432"
      y2="125"
      gradientUnits="userSpaceOnUse"
    >
      <stop stop-color="white" stop-opacity="0.3" />
      <stop offset="0.5" stop-color="white" />
      <stop offset="1" stop-color="white" stop-opacity="0.3" />
    </linearGradient>
    <linearGradient
      id="paint6_linear_27_14619"
      x1="0"
      y1="125"
      x2="1432"
      y2="125"
      gradientUnits="userSpaceOnUse"
    >
      <stop stop-color="white" stop-opacity="0.3" />
      <stop offset="0.5" stop-color="white" />
      <stop offset="1" stop-color="white" stop-opacity="0.3" />
    </linearGradient>
    <linearGradient
      id="paint7_linear_27_14619"
      x1="0"
      y1="125"
      x2="1432"
      y2="125"
      gradientUnits="userSpaceOnUse"
    >
      <stop stop-color="white" stop-opacity="0.3" />
      <stop offset="0.5" stop-color="white" />
      <stop offset="1" stop-color="white" stop-opacity="0.3" />
    </linearGradient>
    <linearGradient
      id="paint8_linear_27_14619"
      x1="0"
      y1="125"
      x2="1432"
      y2="125"
      gradientUnits="userSpaceOnUse"
    >
      <stop stop-color="white" stop-opacity="0.3" />
      <stop offset="0.5" stop-color="white" />
      <stop offset="1" stop-color="white" stop-opacity="0.3" />
    </linearGradient>
    <linearGradient
      id="paint9_linear_27_14619"
      x1="0"
      y1="125"
      x2="1432"
      y2="125"
      gradientUnits="userSpaceOnUse"
    >
      <stop stop-color="white" stop-opacity="0.3" />
      <stop offset="0.5" stop-color="white" />
      <stop offset="1" stop-color="white" stop-opacity="0.3" />
    </linearGradient>
    <linearGradient
      id="paint10_linear_27_14619"
      x1="0"
      y1="125"
      x2="1432"
      y2="125"
      gradientUnits="userSpaceOnUse"
    >
      <stop stop-color="white" stop-opacity="0.3" />
      <stop offset="0.5" stop-color="white" />
      <stop offset="1" stop-color="white" stop-opacity="0.3" />
    </linearGradient>
    <linearGradient
      id="paint11_linear_27_14619"
      x1="0"
      y1="125"
      x2="1432"
      y2="125"
      gradientUnits="userSpaceOnUse"
    >
      <stop stop-color="white" stop-opacity="0.3" />
      <stop offset="0.5" stop-color="white" />
      <stop offset="1" stop-color="white" stop-opacity="0.3" />
    </linearGradient>
    <linearGradient
      id="paint12_linear_27_14619"
      x1="0"
      y1="125"
      x2="1432"
      y2="125"
      gradientUnits="userSpaceOnUse"
    >
      <stop stop-color="white" stop-opacity="0.3" />
      <stop offset="0.5" stop-color="white" />
      <stop offset="1" stop-color="white" stop-opacity="0.3" />
    </linearGradient>
    <linearGradient
      id="paint13_linear_27_14619"
      x1="0"
      y1="125"
      x2="1432"
      y2="125"
      gradientUnits="userSpaceOnUse"
    >
      <stop stop-color="white" stop-opacity="0.3" />
      <stop offset="0.5" stop-color="white" />
      <stop offset="1" stop-color="white" stop-opacity="0.3" />
    </linearGradient>
    <linearGradient
      id="paint14_linear_27_14619"
      x1="0"
      y1="125"
      x2="1432"
      y2="125"
      gradientUnits="userSpaceOnUse"
    >
      <stop stop-color="white" stop-opacity="0.3" />
      <stop offset="0.5" stop-color="white" />
      <stop offset="1" stop-color="white" stop-opacity="0.3" />
    </linearGradient>
    <linearGradient
      id="paint15_linear_27_14619"
      x1="0"
      y1="125"
      x2="1432"
      y2="125"
      gradientUnits="userSpaceOnUse"
    >
      <stop stop-color="white" stop-opacity="0.3" />
      <stop offset="0.5" stop-color="white" />
      <stop offset="1" stop-color="white" stop-opacity="0.3" />
    </linearGradient>
    <linearGradient
      id="paint16_linear_27_14619"
      x1="0"
      y1="125"
      x2="1432"
      y2="125"
      gradientUnits="userSpaceOnUse"
    >
      <stop stop-color="white" stop-opacity="0.3" />
      <stop offset="0.5" stop-color="white" />
      <stop offset="1" stop-color="white" stop-opacity="0.3" />
    </linearGradient>
    <linearGradient
      id="paint17_linear_27_14619"
      x1="0"
      y1="125"
      x2="1432"
      y2="125"
      gradientUnits="userSpaceOnUse"
    >
      <stop stop-color="white" stop-opacity="0.3" />
      <stop offset="0.5" stop-color="white" />
      <stop offset="1" stop-color="white" stop-opacity="0.3" />
    </linearGradient>
    <linearGradient
      id="paint18_linear_27_14619"
      x1="0"
      y1="125"
      x2="1432"
      y2="125"
      gradientUnits="userSpaceOnUse"
    >
      <stop stop-color="white" stop-opacity="0.3" />
      <stop offset="0.5" stop-color="white" />
      <stop offset="1" stop-color="white" stop-opacity="0.3" />
    </linearGradient>
    <linearGradient
      id="paint19_linear_27_14619"
      x1="0"
      y1="125"
      x2="1432"
      y2="125"
      gradientUnits="userSpaceOnUse"
    >
      <stop stop-color="white" stop-opacity="0.3" />
      <stop offset="0.5" stop-color="white" />
      <stop offset="1" stop-color="white" stop-opacity="0.3" />
    </linearGradient>
  </defs>
</svg>
