<svg xmlns="http://www.w3.org/2000/svg" xmlns:xlink="http://www.w3.org/1999/xlink" width="59.991" height="80" viewBox="0 0 59.991 80"><defs><linearGradient id="a" x1="1" y1="0.298" x2="-0.224" y2="0.673" gradientUnits="objectBoundingBox"><stop offset="0" stop-color="#86acb9"/><stop offset="1" stop-color="#eddbc3"/></linearGradient></defs><path d="M9.463-9.1a17.754,17.754,0,0,0-1.92,4.64A2.9,2.9,0,0,1,6.263-3.1a12.849,12.849,0,0,1-3.36.8q-3.2.4-6.4,1.12-1.52.4-1.72,1.48a3.232,3.232,0,0,0,.88,2.48A11.838,11.838,0,0,0-1.1,5.5a26.962,26.962,0,0,1,2.72,1.8A2.558,2.558,0,0,1,2.5,9.06q0,.72-.32,3.2A106.9,106.9,0,0,0,.9,26.66a38.334,38.334,0,0,0,1.52,10.96,60.472,60.472,0,0,0,4.8,11.2,37.4,37.4,0,0,1,5.04,13.92,33.647,33.647,0,0,0,.24,5.2,10.726,10.726,0,0,0,3.2,0q.4.08.56-.6t.4-3.16l.24-6.4.24,6.4a8.171,8.171,0,0,0,.72,3.76,10.928,10.928,0,0,0,2.64,0,.623.623,0,0,0,.56-.24,3.17,3.17,0,0,0,.24-1.2l.48-5.04q.16-5.04,2.48-7.6,2.48-2.88,7.04-2.32a27.677,27.677,0,0,1,8.28,2.4q4.2,1.92,5.24,3.84a7.949,7.949,0,0,1,1.68,4.16q.08,1.12.08,3.36v1.84q.08.72.24.8a5.524,5.524,0,0,0,2.64,0q.32-.16.72-2.72l.32-2.48.4,3.2q.16,1.04.24,1.36.16.56.48.64a8.225,8.225,0,0,0,2.8,0q.48-.08.24-6.4l-.24-6.32a40.972,40.972,0,0,0-.72-5.8,41.061,41.061,0,0,1-.72-5.96,55.706,55.706,0,0,1,.96-10.16,15.493,15.493,0,0,0-1.28-8.48l.8.32h.08q.4.08.88-.48t-1.36-4.4a7.149,7.149,0,0,0-1.48-2.16,2.342,2.342,0,0,0-1.48-.8,2.67,2.67,0,0,0-1.84.72,1.607,1.607,0,0,0-.48,1.36,1.7,1.7,0,0,0,.4,1.12q-1.68-.48-4.96-1.12a42.268,42.268,0,0,0-13.2,1.28q-4.88.88-7.12,1.04a7.842,7.842,0,0,1-3.68-.56A6.072,6.072,0,0,1,16.9,18.9a51.537,51.537,0,0,1-4.16-17.44q-.08-1.28,0-3.68V-4.3q0-1.12.08-3.32t.08-3q-.08-1.2-.32-1.28A7.878,7.878,0,0,0,9.463-9.1Z" transform="translate(5.248 11.9)" fill="url(#a)"/></svg>