<svg xmlns="http://www.w3.org/2000/svg" width="45" height="60"><path d="M11.054 2.08a12.46 12.46 0 00-1.473 3.476c-.4.882-.957 1.348-3.46 1.632a46.569 46.569 0 00-4.786.851c-2.356.638-1.473 2.98 1.693 4.966 3.019 1.844 3.019 1.844 2.577 5.108-1.913 12.982-1.251 18.019 3.756 27.454 2.43 4.54 3.46 7.52 3.755 10.428.181 2.051-.02 3.784.222 3.888a9.346 9.346 0 002.377 0c.4.037.493-.483.714-2.824l.221-4.824.147 4.824a6.538 6.538 0 00.54 2.824 10.156 10.156 0 002 0c.554.019.508-.112.95-4.865.124-4.8 2.4-7.961 7.114-7.465 4.049.5 9.056 2.767 10.16 4.682a6.3 6.3 0 011.236 3.141c.184 1.912-.09 4.367.268 4.506a4.3 4.3 0 001.989 0c.428-.172.784-3.877.784-3.877s.176 1.214.3 2.172.172 1.617.5 1.706a6.563 6.563 0 002.135 0c.507-.144 0-9.563 0-9.563-.221-5.321-2.117-6.347-.373-16.436.243-1.454-.135-5.32-.986-6.33a4.354 4.354 0 00.635.25c.019-.019.292.085.663-.389.365-.374-.339-1.91-.971-3.264s-1.6-2.228-2.211-2.223a1.9 1.9 0 00-1.376.511 1.266 1.266 0 00-.395 1.049 1.175 1.175 0 00.341.8s-1.307-.345-3.719-.8c-2.282-.426-5.525.16-9.942.94-6.994 1.277-8.172 1.064-9.792-1.348-1-1.492-2.665-7.4-3.115-13.032-.136-1.548 0-2.7 0-4.359 0-2.7.275-5.475-.167-5.687a6 6 0 00-2.311 2.078z" fill="#fff"/></svg>