<svg width="361" height="233" viewBox="0 0 361 233" fill="none" xmlns="http://www.w3.org/2000/svg">
<path d="M0.296143 0.402832L9.74209 7.34626M18.7462 0.402832L28.1922 7.34626M37.1967 0.402832L46.6427 7.34626M55.6468 0.402832L65.0928 7.34626M74.0969 0.402832L83.5428 7.34626M92.5469 0.402832L101.993 7.34626M110.997 0.402832L120.443 7.34626M129.448 0.402832L138.893 7.34626M147.898 0.402832L157.344 7.34626M166.348 0.402832L175.794 7.34626M184.798 0.402832L194.244 7.34626M203.248 0.402832L212.694 7.34626M221.699 0.402832L231.145 7.34626M240.149 0.402832L249.595 7.34626M258.599 0.402832L268.045 7.34626M277.049 0.402832L286.495 7.34626M295.5 0.402832L304.945 7.34626M313.95 0.402832L323.396 7.34626M332.4 0.402832L341.846 7.34626M350.85 0.402832L360.296 7.34626M0.296143 19.7715L9.74209 26.7149M18.7462 19.7715L28.1922 26.7149M37.1967 19.7715L46.6427 26.7149M55.6468 19.7715L65.0928 26.7149M74.0969 19.7715L83.5428 26.7149M92.5469 19.7715L101.993 26.7149M110.997 19.7715L120.443 26.7149M129.448 19.7715L138.893 26.7149M147.898 19.7715L157.344 26.7149M166.348 19.7715L175.794 26.7149M184.798 19.7715L194.244 26.7149M203.248 19.7715L212.694 26.7149M221.699 19.7715L231.145 26.7149M240.149 19.7715L249.595 26.7149M258.599 19.7715L268.045 26.7149M277.049 19.7715L286.495 26.7149M295.5 19.7715L304.945 26.7149M313.95 19.7715L323.396 26.7149M332.4 19.7715L341.846 26.7149M350.85 19.7715L360.296 26.7149M0.296143 39.1406L9.74209 46.084M18.7462 39.1406L28.1922 46.084M37.1967 39.1406L46.6427 46.084M55.6468 39.1406L65.0928 46.084M74.0969 39.1406L83.5428 46.084M92.5469 39.1406L101.993 46.084M110.997 39.1406L120.443 46.084M129.448 39.1406L138.893 46.084M147.898 39.1406L157.344 46.084M166.348 39.1406L175.794 46.084M184.798 39.1406L194.244 46.084M203.248 39.1406L212.694 46.084M221.699 39.1406L231.145 46.084M240.149 39.1406L249.595 46.084M258.599 39.1406L268.045 46.084M277.049 39.1406L286.495 46.084M295.5 39.1406L304.945 46.084M313.95 39.1406L323.396 46.084M332.4 39.1406L341.846 46.084M350.85 39.1406L360.296 46.084M0.296143 58.5093L9.74209 65.4527M18.7462 58.5093L28.1922 65.4527M37.1967 58.5093L46.6427 65.4527M55.6468 58.5093L65.0928 65.4527M74.0974 58.5093L83.5433 65.4527M92.5469 58.5093L101.993 65.4527M110.997 58.5093L120.443 65.4527M129.448 58.5093L138.893 65.4527M147.898 58.5093L157.344 65.4527M166.348 58.5093L175.794 65.4527M184.798 58.5093L194.244 65.4527M203.248 58.5093L212.694 65.4527M221.699 58.5093L231.145 65.4527M240.149 58.5093L249.595 65.4527M258.599 58.5093L268.045 65.4527M277.049 58.5093L286.495 65.4527M295.5 58.5093L304.945 65.4527M313.95 58.5093L323.396 65.4527M332.4 58.5093L341.846 65.4527M350.85 58.5093L360.296 65.4527M0.296143 77.8779L9.74209 84.8213M18.7462 77.8779L28.1922 84.8213M37.1967 77.8779L46.6427 84.8213M55.6468 77.8779L65.0928 84.8213M74.0969 77.8779L83.5428 84.8213M92.5469 77.8779L101.993 84.8213M110.997 77.8779L120.443 84.8213M129.448 77.8779L138.893 84.8213M147.898 77.8779L157.344 84.8213M166.348 77.8779L175.794 84.8213M184.798 77.8779L194.244 84.8213M203.248 77.8779L212.694 84.8213M221.699 77.8779L231.145 84.8213M240.149 77.8779L249.595 84.8213M258.599 77.8779L268.045 84.8213M277.049 77.8779L286.495 84.8213M295.5 77.8779L304.945 84.8213M313.95 77.8779L323.396 84.8213M332.4 77.8779L341.846 84.8213M350.85 77.8779L360.296 84.8213M0.296143 97.2465L9.74209 104.19M18.7462 97.2465L28.1922 104.19M37.1967 97.2465L46.6427 104.19M55.6468 97.2465L65.0928 104.19M74.0969 97.2465L83.5428 104.19M92.5469 97.2465L101.993 104.19M110.997 97.2465L120.443 104.19M129.448 97.2465L138.893 104.19M147.898 97.2465L157.344 104.19M166.348 97.2465L175.794 104.19M184.798 97.2465L194.244 104.19M203.248 97.2465L212.694 104.19M221.699 97.2465L231.145 104.19M240.149 97.2465L249.595 104.19M258.599 97.2465L268.045 104.19M277.049 97.2465L286.495 104.19M295.5 97.2465L304.945 104.19M313.95 97.2465L323.396 104.19M332.4 97.2465L341.846 104.19M350.85 97.2465L360.296 104.19M0.296143 116.616L9.74209 123.559M18.7462 116.616L28.1922 123.559M37.1967 116.616L46.6427 123.559M55.6468 116.616L65.0928 123.559M74.0969 116.616L83.5428 123.559M92.5469 116.616L101.993 123.559M110.997 116.616L120.443 123.559M129.448 116.616L138.893 123.559M147.898 116.616L157.344 123.559M166.348 116.616L175.794 123.559M184.798 116.616L194.244 123.559M203.248 116.616L212.694 123.559M221.699 116.616L231.145 123.559M240.149 116.616L249.595 123.559M258.599 116.616L268.045 123.559M277.049 116.616L286.495 123.559M295.5 116.616L304.945 123.559M313.95 116.616L323.396 123.559M332.4 116.616L341.846 123.559M350.85 116.616L360.296 123.559M0.296143 135.984L9.74209 142.928M18.7462 135.984L28.1922 142.928M37.1967 135.984L46.6427 142.928M55.6468 135.984L65.0928 142.928M74.0969 135.984L83.5428 142.928M92.5469 135.984L101.993 142.928M110.997 135.984L120.443 142.928M129.448 135.984L138.893 142.928M147.898 135.984L157.344 142.928M166.348 135.984L175.794 142.928M184.798 135.984L194.244 142.928M203.248 135.984L212.694 142.928M221.699 135.984L231.145 142.928M240.149 135.984L249.595 142.928M258.599 135.984L268.045 142.928M277.049 135.984L286.495 142.928M295.5 135.984L304.945 142.928M313.95 135.984L323.396 142.928M332.4 135.984L341.846 142.928M350.85 135.984L360.296 142.928M0.296143 155.353L9.74209 162.296M18.7462 155.353L28.1922 162.296M37.1967 155.353L46.6427 162.296M55.6468 155.353L65.0928 162.296M74.0969 155.353L83.5428 162.296M92.5469 155.353L101.993 162.296M110.997 155.353L120.443 162.296M129.448 155.353L138.893 162.296M147.898 155.353L157.344 162.296M166.348 155.353L175.794 162.296M184.798 155.353L194.244 162.296M203.248 155.353L212.694 162.296M221.699 155.353L231.145 162.296M240.149 155.353L249.595 162.296M258.599 155.353L268.045 162.296M277.049 155.353L286.495 162.296M295.5 155.353L304.945 162.296M313.95 155.353L323.396 162.296M332.4 155.353L341.846 162.296M350.85 155.353L360.296 162.296M0.296143 174.722L9.74209 181.665M18.7462 174.722L28.1922 181.665M37.1967 174.722L46.6427 181.665M55.6468 174.722L65.0928 181.665M74.0969 174.722L83.5428 181.665M92.5469 174.722L101.993 181.665M110.997 174.722L120.443 181.665M129.448 174.722L138.893 181.665M147.898 174.722L157.344 181.665M166.348 174.722L175.794 181.665M184.798 174.722L194.244 181.665M203.248 174.722L212.694 181.665M221.699 174.722L231.145 181.665M240.149 174.722L249.595 181.665M258.599 174.722L268.045 181.665M277.049 174.722L286.495 181.665M295.5 174.722L304.945 181.665M313.95 174.722L323.396 181.665M332.4 174.722L341.846 181.665M350.85 174.722L360.296 181.665M0.296143 194.091L9.74209 201.034M18.7462 194.091L28.1922 201.034M37.1967 194.091L46.6427 201.034M55.6468 194.091L65.0928 201.034M74.0969 194.091L83.5428 201.034M92.5469 194.091L101.993 201.034M110.997 194.091L120.443 201.034M129.448 194.091L138.893 201.034M147.898 194.091L157.344 201.034M166.348 194.091L175.794 201.034M184.798 194.091L194.244 201.034M203.248 194.091L212.694 201.034M221.699 194.091L231.145 201.034M240.149 194.091L249.595 201.034M258.599 194.091L268.045 201.034M277.049 194.091L286.495 201.034M295.5 194.091L304.945 201.034M313.95 194.091L323.396 201.034M332.4 194.091L341.846 201.034M350.85 194.091L360.296 201.034M0.296143 213.459L9.74209 220.403M18.7462 213.459L28.1922 220.403M37.1967 213.459L46.6427 220.403M55.6468 213.459L65.0928 220.403M74.0969 213.459L83.5428 220.403M92.5469 213.459L101.993 220.403M110.997 213.459L120.443 220.403M129.448 213.459L138.893 220.403M147.898 213.459L157.344 220.403M166.348 213.459L175.794 220.403M184.798 213.459L194.244 220.403M203.248 213.459L212.694 220.403M221.699 213.459L231.145 220.403M240.149 213.459L249.595 220.403M258.599 213.459L268.045 220.403M277.049 213.459L286.495 220.403M295.5 213.459L304.945 220.403M313.95 213.459L323.396 220.403M332.4 213.459L341.846 220.403M350.85 213.459L360.296 220.403" stroke="url(#paint0_radial_63_2371)"/>
<g filter="url(#filter0_dddd_63_2371)">
<path d="M260.255 165.447L260.429 167.439C260.716 170.74 256.043 173.844 249.991 174.371C244.047 174.888 238.983 172.728 238.532 169.523L238.512 169.347L238.338 167.355C238.626 170.656 243.765 172.905 249.817 172.378C255.87 171.851 260.543 168.748 260.255 165.447ZM248.603 158.431C254.655 157.904 259.795 160.153 260.082 163.454C260.369 166.755 255.696 169.859 249.644 170.386C243.592 170.913 238.452 168.664 238.165 165.362C237.877 162.061 242.551 158.958 248.603 158.431Z" fill="url(#paint1_linear_63_2371)"/>
</g>
<g filter="url(#filter1_dddd_63_2371)">
<path d="M28.9703 150.736C28.4369 150.879 28.1203 151.427 28.2632 151.96L32.1455 166.449C32.2884 166.983 32.8368 167.299 33.3702 167.156L34.3362 166.897L34.8538 168.829L36.7857 168.312L36.268 166.38L47.8591 163.274L48.3768 165.206L50.3086 164.688L49.791 162.756L50.7569 162.498C51.2904 162.355 51.607 161.806 51.464 161.273L47.5817 146.784C47.4388 146.25 46.8905 145.934 46.357 146.077L28.9703 150.736ZM42.254 152.597L43.1965 150.965L44.9285 151.965L43.9861 153.597C44.9087 154.534 45.274 155.897 44.9433 157.17L46.5756 158.112L45.5756 159.844L43.9433 158.902C43.0068 159.824 41.6433 160.19 40.3709 159.859L39.4285 161.491L37.6964 160.491L38.6389 158.859C37.7163 157.923 37.3509 156.559 37.6816 155.287L36.0493 154.344L37.0493 152.612L38.6816 153.555C39.6182 152.632 40.9817 152.267 42.254 152.597ZM42.1874 154.713C41.3504 154.229 40.2802 154.516 39.797 155.353C39.3136 156.19 39.6004 157.261 40.4375 157.744C41.2745 158.227 42.3447 157.94 42.828 157.103C43.3113 156.266 43.0245 155.196 42.1874 154.713ZM32.1963 155.048L34.1281 154.53L35.9399 161.291L34.008 161.809L32.1963 155.048Z" fill="url(#paint2_linear_63_2371)"/>
</g>
<g filter="url(#filter2_dddd_63_2371)">
<path d="M275.995 82.3106L272.131 81.2753L271.614 83.2072L269.682 82.6896L270.2 80.7577L269.234 80.4989C268.7 80.356 268.384 79.8075 268.527 79.2741L272.409 64.7852C272.552 64.2518 273.1 63.9352 273.634 64.0781L280.395 65.8899L280.76 64.5281C280.831 64.2614 281.106 64.1031 281.372 64.1746C281.399 64.1817 281.425 64.191 281.45 64.2024L291.215 68.6449C291.66 68.8473 291.894 69.3418 291.767 69.8139L291.21 71.8935L292.176 72.1523L291.658 74.0841L290.692 73.8253L288.88 80.5868L289.846 80.8456L289.329 82.7775L288.363 82.5187L287.806 84.5981C287.679 85.0704 287.23 85.3819 286.743 85.3346L285.568 85.2208L285.137 86.8307L283.205 86.313L283.55 85.0251L276.065 84.2994C275.79 84.2727 275.589 84.0283 275.616 83.7535C275.618 83.7261 275.623 83.699 275.63 83.6723L275.995 82.3106ZM278.02 82.4796L286.093 83.2623L289.616 70.1146L282.234 66.7561L278.02 82.4796ZM283.827 78.1974C283.026 77.983 282.667 76.728 283.025 75.3944C283.382 74.0607 284.321 73.1533 285.121 73.3677C285.921 73.5821 286.28 74.8372 285.923 76.1708C285.565 77.5045 284.627 78.4118 283.827 78.1974Z" fill="url(#paint3_linear_63_2371)"/>
</g>
<g filter="url(#filter3_dddd_63_2371)">
<path d="M113.409 197.763C108.074 196.333 104.908 190.85 106.338 185.515C107.767 180.181 113.25 177.015 118.585 178.444C123.92 179.874 127.086 185.357 125.656 190.692C124.227 196.027 118.743 199.192 113.409 197.763ZM114.358 184.559L111.297 186.327L114.831 192.45L120.956 188.915L119.188 185.853L114.358 184.559Z" fill="url(#paint4_linear_63_2371)"/>
</g>
<g filter="url(#filter4_dddd_63_2371)">
<path d="M40.3006 58.5721C35.238 58.5721 31.1339 54.468 31.1339 49.4054C31.1339 44.3428 35.238 40.2388 40.3006 40.2388C45.3632 40.2388 49.4673 44.3428 49.4673 49.4054C49.4673 54.468 45.3632 58.5721 40.3006 58.5721ZM40.3006 45.5163L36.4115 49.4054L40.3006 53.2945L44.1896 49.4054L40.3006 45.5163Z" fill="url(#paint5_linear_63_2371)"/>
</g>
<g filter="url(#filter5_dddd_63_2371)">
<path d="M84.3006 102.572C79.238 102.572 75.1339 98.468 75.1339 93.4054C75.1339 88.3428 79.238 84.2388 84.3006 84.2388C89.3632 84.2388 93.4673 88.3428 93.4673 93.4054C93.4673 98.468 89.3632 102.572 84.3006 102.572ZM84.3006 100.739C88.3507 100.739 91.6339 97.4555 91.6339 93.4054C91.6339 89.3553 88.3507 86.0721 84.3006 86.0721C80.2505 86.0721 76.9672 89.3553 76.9672 93.4054C76.9672 97.4555 80.2505 100.739 84.3006 100.739ZM81.5506 89.7388H87.0506L89.3423 92.9471L84.2999 97.9887L79.2589 92.9471L81.5506 89.7388ZM82.4948 91.5721L81.6514 92.7546L84.2999 95.4037L86.9498 92.7546L86.1064 91.5721H82.4948Z" fill="url(#paint6_linear_63_2371)"/>
</g>
<g filter="url(#filter6_dddd_63_2371)">
<path d="M314.301 158.405C308.778 158.405 304.301 153.928 304.301 148.405C304.301 142.883 308.778 138.406 314.301 138.406C319.824 138.406 324.301 142.883 324.301 148.405C324.301 153.928 319.824 158.405 314.301 158.405ZM314.301 156.405C318.719 156.405 322.301 152.824 322.301 148.405C322.301 143.987 318.719 140.406 314.301 140.406C309.883 140.406 306.301 143.987 306.301 148.405C306.301 152.824 309.883 156.405 314.301 156.405ZM314.301 143.456L319.251 148.405L314.301 153.355L309.351 148.405L314.301 143.456ZM314.301 146.284L312.18 148.405L314.301 150.527L316.422 148.405L314.301 146.284Z" fill="url(#paint7_linear_63_2371)"/>
</g>
<g filter="url(#filter7_dddd_63_2371)">
<path d="M169.192 103.329L178.233 103.331C188.589 103.331 196.983 111.726 196.983 122.081H167.812L167.816 126.248L201.15 126.244V122.081C201.15 117.571 199.824 113.318 197.458 109.578L209.483 109.581C217.784 109.581 224.952 114.437 228.3 121.462C218.447 134.464 202.491 142.914 184.483 142.914C172.978 142.914 163.231 140.454 155.315 136.144L155.321 97.3769C160.511 98.1203 165.26 100.23 169.192 103.329ZM151.15 134.581C151.15 136.882 149.284 138.748 146.983 138.748H138.65C136.349 138.748 134.483 136.882 134.483 134.581V97.0811C134.483 94.7799 136.349 92.9145 138.65 92.9145H146.983C149.284 92.9145 151.15 94.7799 151.15 97.0811V134.581ZM205.317 76.2478C212.22 76.2478 217.817 81.8442 217.817 88.7478C217.817 95.6513 212.22 101.248 205.317 101.248C198.413 101.248 192.817 95.6513 192.817 88.7478C192.817 81.8442 198.413 76.2478 205.317 76.2478ZM176.15 63.7478C183.053 63.7478 188.65 69.3442 188.65 76.2478C188.65 83.1513 183.053 88.7478 176.15 88.7478C169.246 88.7478 163.65 83.1513 163.65 76.2478C163.65 69.3442 169.246 63.7478 176.15 63.7478Z" fill="url(#paint8_linear_63_2371)"/>
</g>
<defs>
<filter id="filter0_dddd_63_2371" x="228.152" y="157.354" width="42.2893" height="51.0928" filterUnits="userSpaceOnUse" color-interpolation-filters="sRGB">
<feFlood flood-opacity="0" result="BackgroundImageFix"/>
<feColorMatrix in="SourceAlpha" type="matrix" values="0 0 0 0 0 0 0 0 0 0 0 0 0 0 0 0 0 0 127 0" result="hardAlpha"/>
<feOffset dy="2"/>
<feGaussianBlur stdDeviation="1.5"/>
<feColorMatrix type="matrix" values="0 0 0 0 0 0 0 0 0 0 0 0 0 0 0 0 0 0 0.1 0"/>
<feBlend mode="normal" in2="BackgroundImageFix" result="effect1_dropShadow_63_2371"/>
<feColorMatrix in="SourceAlpha" type="matrix" values="0 0 0 0 0 0 0 0 0 0 0 0 0 0 0 0 0 0 127 0" result="hardAlpha"/>
<feOffset dy="6"/>
<feGaussianBlur stdDeviation="3"/>
<feColorMatrix type="matrix" values="0 0 0 0 0 0 0 0 0 0 0 0 0 0 0 0 0 0 0.09 0"/>
<feBlend mode="normal" in2="effect1_dropShadow_63_2371" result="effect2_dropShadow_63_2371"/>
<feColorMatrix in="SourceAlpha" type="matrix" values="0 0 0 0 0 0 0 0 0 0 0 0 0 0 0 0 0 0 127 0" result="hardAlpha"/>
<feOffset dy="14"/>
<feGaussianBlur stdDeviation="4"/>
<feColorMatrix type="matrix" values="0 0 0 0 0 0 0 0 0 0 0 0 0 0 0 0 0 0 0.05 0"/>
<feBlend mode="normal" in2="effect2_dropShadow_63_2371" result="effect3_dropShadow_63_2371"/>
<feColorMatrix in="SourceAlpha" type="matrix" values="0 0 0 0 0 0 0 0 0 0 0 0 0 0 0 0 0 0 127 0" result="hardAlpha"/>
<feOffset dy="24"/>
<feGaussianBlur stdDeviation="5"/>
<feColorMatrix type="matrix" values="0 0 0 0 0 0 0 0 0 0 0 0 0 0 0 0 0 0 0.01 0"/>
<feBlend mode="normal" in2="effect3_dropShadow_63_2371" result="effect4_dropShadow_63_2371"/>
<feBlend mode="normal" in="SourceGraphic" in2="effect4_dropShadow_63_2371" result="shape"/>
</filter>
<filter id="filter1_dddd_63_2371" x="18.2289" y="145.042" width="43.2694" height="57.7869" filterUnits="userSpaceOnUse" color-interpolation-filters="sRGB">
<feFlood flood-opacity="0" result="BackgroundImageFix"/>
<feColorMatrix in="SourceAlpha" type="matrix" values="0 0 0 0 0 0 0 0 0 0 0 0 0 0 0 0 0 0 127 0" result="hardAlpha"/>
<feOffset dy="2"/>
<feGaussianBlur stdDeviation="1.5"/>
<feColorMatrix type="matrix" values="0 0 0 0 0 0 0 0 0 0 0 0 0 0 0 0 0 0 0.1 0"/>
<feBlend mode="normal" in2="BackgroundImageFix" result="effect1_dropShadow_63_2371"/>
<feColorMatrix in="SourceAlpha" type="matrix" values="0 0 0 0 0 0 0 0 0 0 0 0 0 0 0 0 0 0 127 0" result="hardAlpha"/>
<feOffset dy="6"/>
<feGaussianBlur stdDeviation="3"/>
<feColorMatrix type="matrix" values="0 0 0 0 0 0 0 0 0 0 0 0 0 0 0 0 0 0 0.09 0"/>
<feBlend mode="normal" in2="effect1_dropShadow_63_2371" result="effect2_dropShadow_63_2371"/>
<feColorMatrix in="SourceAlpha" type="matrix" values="0 0 0 0 0 0 0 0 0 0 0 0 0 0 0 0 0 0 127 0" result="hardAlpha"/>
<feOffset dy="14"/>
<feGaussianBlur stdDeviation="4"/>
<feColorMatrix type="matrix" values="0 0 0 0 0 0 0 0 0 0 0 0 0 0 0 0 0 0 0.05 0"/>
<feBlend mode="normal" in2="effect2_dropShadow_63_2371" result="effect3_dropShadow_63_2371"/>
<feColorMatrix in="SourceAlpha" type="matrix" values="0 0 0 0 0 0 0 0 0 0 0 0 0 0 0 0 0 0 127 0" result="hardAlpha"/>
<feOffset dy="24"/>
<feGaussianBlur stdDeviation="5"/>
<feColorMatrix type="matrix" values="0 0 0 0 0 0 0 0 0 0 0 0 0 0 0 0 0 0 0.01 0"/>
<feBlend mode="normal" in2="effect3_dropShadow_63_2371" result="effect4_dropShadow_63_2371"/>
<feBlend mode="normal" in="SourceGraphic" in2="effect4_dropShadow_63_2371" result="shape"/>
</filter>
<filter id="filter2_dddd_63_2371" x="258.492" y="63.0437" width="43.6833" height="57.7869" filterUnits="userSpaceOnUse" color-interpolation-filters="sRGB">
<feFlood flood-opacity="0" result="BackgroundImageFix"/>
<feColorMatrix in="SourceAlpha" type="matrix" values="0 0 0 0 0 0 0 0 0 0 0 0 0 0 0 0 0 0 127 0" result="hardAlpha"/>
<feOffset dy="2"/>
<feGaussianBlur stdDeviation="1.5"/>
<feColorMatrix type="matrix" values="0 0 0 0 0 0 0 0 0 0 0 0 0 0 0 0 0 0 0.1 0"/>
<feBlend mode="normal" in2="BackgroundImageFix" result="effect1_dropShadow_63_2371"/>
<feColorMatrix in="SourceAlpha" type="matrix" values="0 0 0 0 0 0 0 0 0 0 0 0 0 0 0 0 0 0 127 0" result="hardAlpha"/>
<feOffset dy="6"/>
<feGaussianBlur stdDeviation="3"/>
<feColorMatrix type="matrix" values="0 0 0 0 0 0 0 0 0 0 0 0 0 0 0 0 0 0 0.09 0"/>
<feBlend mode="normal" in2="effect1_dropShadow_63_2371" result="effect2_dropShadow_63_2371"/>
<feColorMatrix in="SourceAlpha" type="matrix" values="0 0 0 0 0 0 0 0 0 0 0 0 0 0 0 0 0 0 127 0" result="hardAlpha"/>
<feOffset dy="14"/>
<feGaussianBlur stdDeviation="4"/>
<feColorMatrix type="matrix" values="0 0 0 0 0 0 0 0 0 0 0 0 0 0 0 0 0 0 0.05 0"/>
<feBlend mode="normal" in2="effect2_dropShadow_63_2371" result="effect3_dropShadow_63_2371"/>
<feColorMatrix in="SourceAlpha" type="matrix" values="0 0 0 0 0 0 0 0 0 0 0 0 0 0 0 0 0 0 127 0" result="hardAlpha"/>
<feOffset dy="24"/>
<feGaussianBlur stdDeviation="5"/>
<feColorMatrix type="matrix" values="0 0 0 0 0 0 0 0 0 0 0 0 0 0 0 0 0 0 0.01 0"/>
<feBlend mode="normal" in2="effect3_dropShadow_63_2371" result="effect4_dropShadow_63_2371"/>
<feBlend mode="normal" in="SourceGraphic" in2="effect4_dropShadow_63_2371" result="shape"/>
</filter>
<filter id="filter3_dddd_63_2371" x="95.9944" y="177.101" width="40.005" height="55.0051" filterUnits="userSpaceOnUse" color-interpolation-filters="sRGB">
<feFlood flood-opacity="0" result="BackgroundImageFix"/>
<feColorMatrix in="SourceAlpha" type="matrix" values="0 0 0 0 0 0 0 0 0 0 0 0 0 0 0 0 0 0 127 0" result="hardAlpha"/>
<feOffset dy="2"/>
<feGaussianBlur stdDeviation="1.5"/>
<feColorMatrix type="matrix" values="0 0 0 0 0 0 0 0 0 0 0 0 0 0 0 0 0 0 0.1 0"/>
<feBlend mode="normal" in2="BackgroundImageFix" result="effect1_dropShadow_63_2371"/>
<feColorMatrix in="SourceAlpha" type="matrix" values="0 0 0 0 0 0 0 0 0 0 0 0 0 0 0 0 0 0 127 0" result="hardAlpha"/>
<feOffset dy="6"/>
<feGaussianBlur stdDeviation="3"/>
<feColorMatrix type="matrix" values="0 0 0 0 0 0 0 0 0 0 0 0 0 0 0 0 0 0 0.09 0"/>
<feBlend mode="normal" in2="effect1_dropShadow_63_2371" result="effect2_dropShadow_63_2371"/>
<feColorMatrix in="SourceAlpha" type="matrix" values="0 0 0 0 0 0 0 0 0 0 0 0 0 0 0 0 0 0 127 0" result="hardAlpha"/>
<feOffset dy="14"/>
<feGaussianBlur stdDeviation="4"/>
<feColorMatrix type="matrix" values="0 0 0 0 0 0 0 0 0 0 0 0 0 0 0 0 0 0 0.05 0"/>
<feBlend mode="normal" in2="effect2_dropShadow_63_2371" result="effect3_dropShadow_63_2371"/>
<feColorMatrix in="SourceAlpha" type="matrix" values="0 0 0 0 0 0 0 0 0 0 0 0 0 0 0 0 0 0 127 0" result="hardAlpha"/>
<feOffset dy="24"/>
<feGaussianBlur stdDeviation="5"/>
<feColorMatrix type="matrix" values="0 0 0 0 0 0 0 0 0 0 0 0 0 0 0 0 0 0 0.01 0"/>
<feBlend mode="normal" in2="effect3_dropShadow_63_2371" result="effect4_dropShadow_63_2371"/>
<feBlend mode="normal" in="SourceGraphic" in2="effect4_dropShadow_63_2371" result="shape"/>
</filter>
<filter id="filter4_dddd_63_2371" x="21.1339" y="39.2388" width="38.3334" height="53.3333" filterUnits="userSpaceOnUse" color-interpolation-filters="sRGB">
<feFlood flood-opacity="0" result="BackgroundImageFix"/>
<feColorMatrix in="SourceAlpha" type="matrix" values="0 0 0 0 0 0 0 0 0 0 0 0 0 0 0 0 0 0 127 0" result="hardAlpha"/>
<feOffset dy="2"/>
<feGaussianBlur stdDeviation="1.5"/>
<feColorMatrix type="matrix" values="0 0 0 0 0 0 0 0 0 0 0 0 0 0 0 0 0 0 0.1 0"/>
<feBlend mode="normal" in2="BackgroundImageFix" result="effect1_dropShadow_63_2371"/>
<feColorMatrix in="SourceAlpha" type="matrix" values="0 0 0 0 0 0 0 0 0 0 0 0 0 0 0 0 0 0 127 0" result="hardAlpha"/>
<feOffset dy="6"/>
<feGaussianBlur stdDeviation="3"/>
<feColorMatrix type="matrix" values="0 0 0 0 0 0 0 0 0 0 0 0 0 0 0 0 0 0 0.09 0"/>
<feBlend mode="normal" in2="effect1_dropShadow_63_2371" result="effect2_dropShadow_63_2371"/>
<feColorMatrix in="SourceAlpha" type="matrix" values="0 0 0 0 0 0 0 0 0 0 0 0 0 0 0 0 0 0 127 0" result="hardAlpha"/>
<feOffset dy="14"/>
<feGaussianBlur stdDeviation="4"/>
<feColorMatrix type="matrix" values="0 0 0 0 0 0 0 0 0 0 0 0 0 0 0 0 0 0 0.05 0"/>
<feBlend mode="normal" in2="effect2_dropShadow_63_2371" result="effect3_dropShadow_63_2371"/>
<feColorMatrix in="SourceAlpha" type="matrix" values="0 0 0 0 0 0 0 0 0 0 0 0 0 0 0 0 0 0 127 0" result="hardAlpha"/>
<feOffset dy="24"/>
<feGaussianBlur stdDeviation="5"/>
<feColorMatrix type="matrix" values="0 0 0 0 0 0 0 0 0 0 0 0 0 0 0 0 0 0 0.01 0"/>
<feBlend mode="normal" in2="effect3_dropShadow_63_2371" result="effect4_dropShadow_63_2371"/>
<feBlend mode="normal" in="SourceGraphic" in2="effect4_dropShadow_63_2371" result="shape"/>
</filter>
<filter id="filter5_dddd_63_2371" x="65.1339" y="83.2388" width="38.3334" height="53.3333" filterUnits="userSpaceOnUse" color-interpolation-filters="sRGB">
<feFlood flood-opacity="0" result="BackgroundImageFix"/>
<feColorMatrix in="SourceAlpha" type="matrix" values="0 0 0 0 0 0 0 0 0 0 0 0 0 0 0 0 0 0 127 0" result="hardAlpha"/>
<feOffset dy="2"/>
<feGaussianBlur stdDeviation="1.5"/>
<feColorMatrix type="matrix" values="0 0 0 0 0 0 0 0 0 0 0 0 0 0 0 0 0 0 0.1 0"/>
<feBlend mode="normal" in2="BackgroundImageFix" result="effect1_dropShadow_63_2371"/>
<feColorMatrix in="SourceAlpha" type="matrix" values="0 0 0 0 0 0 0 0 0 0 0 0 0 0 0 0 0 0 127 0" result="hardAlpha"/>
<feOffset dy="6"/>
<feGaussianBlur stdDeviation="3"/>
<feColorMatrix type="matrix" values="0 0 0 0 0 0 0 0 0 0 0 0 0 0 0 0 0 0 0.09 0"/>
<feBlend mode="normal" in2="effect1_dropShadow_63_2371" result="effect2_dropShadow_63_2371"/>
<feColorMatrix in="SourceAlpha" type="matrix" values="0 0 0 0 0 0 0 0 0 0 0 0 0 0 0 0 0 0 127 0" result="hardAlpha"/>
<feOffset dy="14"/>
<feGaussianBlur stdDeviation="4"/>
<feColorMatrix type="matrix" values="0 0 0 0 0 0 0 0 0 0 0 0 0 0 0 0 0 0 0.05 0"/>
<feBlend mode="normal" in2="effect2_dropShadow_63_2371" result="effect3_dropShadow_63_2371"/>
<feColorMatrix in="SourceAlpha" type="matrix" values="0 0 0 0 0 0 0 0 0 0 0 0 0 0 0 0 0 0 127 0" result="hardAlpha"/>
<feOffset dy="24"/>
<feGaussianBlur stdDeviation="5"/>
<feColorMatrix type="matrix" values="0 0 0 0 0 0 0 0 0 0 0 0 0 0 0 0 0 0 0.01 0"/>
<feBlend mode="normal" in2="effect3_dropShadow_63_2371" result="effect4_dropShadow_63_2371"/>
<feBlend mode="normal" in="SourceGraphic" in2="effect4_dropShadow_63_2371" result="shape"/>
</filter>
<filter id="filter6_dddd_63_2371" x="294.301" y="137.406" width="40" height="55" filterUnits="userSpaceOnUse" color-interpolation-filters="sRGB">
<feFlood flood-opacity="0" result="BackgroundImageFix"/>
<feColorMatrix in="SourceAlpha" type="matrix" values="0 0 0 0 0 0 0 0 0 0 0 0 0 0 0 0 0 0 127 0" result="hardAlpha"/>
<feOffset dy="2"/>
<feGaussianBlur stdDeviation="1.5"/>
<feColorMatrix type="matrix" values="0 0 0 0 0 0 0 0 0 0 0 0 0 0 0 0 0 0 0.1 0"/>
<feBlend mode="normal" in2="BackgroundImageFix" result="effect1_dropShadow_63_2371"/>
<feColorMatrix in="SourceAlpha" type="matrix" values="0 0 0 0 0 0 0 0 0 0 0 0 0 0 0 0 0 0 127 0" result="hardAlpha"/>
<feOffset dy="6"/>
<feGaussianBlur stdDeviation="3"/>
<feColorMatrix type="matrix" values="0 0 0 0 0 0 0 0 0 0 0 0 0 0 0 0 0 0 0.09 0"/>
<feBlend mode="normal" in2="effect1_dropShadow_63_2371" result="effect2_dropShadow_63_2371"/>
<feColorMatrix in="SourceAlpha" type="matrix" values="0 0 0 0 0 0 0 0 0 0 0 0 0 0 0 0 0 0 127 0" result="hardAlpha"/>
<feOffset dy="14"/>
<feGaussianBlur stdDeviation="4"/>
<feColorMatrix type="matrix" values="0 0 0 0 0 0 0 0 0 0 0 0 0 0 0 0 0 0 0.05 0"/>
<feBlend mode="normal" in2="effect2_dropShadow_63_2371" result="effect3_dropShadow_63_2371"/>
<feColorMatrix in="SourceAlpha" type="matrix" values="0 0 0 0 0 0 0 0 0 0 0 0 0 0 0 0 0 0 127 0" result="hardAlpha"/>
<feOffset dy="24"/>
<feGaussianBlur stdDeviation="5"/>
<feColorMatrix type="matrix" values="0 0 0 0 0 0 0 0 0 0 0 0 0 0 0 0 0 0 0.01 0"/>
<feBlend mode="normal" in2="effect3_dropShadow_63_2371" result="effect4_dropShadow_63_2371"/>
<feBlend mode="normal" in="SourceGraphic" in2="effect4_dropShadow_63_2371" result="shape"/>
</filter>
<filter id="filter7_dddd_63_2371" x="124.483" y="62.7478" width="113.817" height="114.167" filterUnits="userSpaceOnUse" color-interpolation-filters="sRGB">
<feFlood flood-opacity="0" result="BackgroundImageFix"/>
<feColorMatrix in="SourceAlpha" type="matrix" values="0 0 0 0 0 0 0 0 0 0 0 0 0 0 0 0 0 0 127 0" result="hardAlpha"/>
<feOffset dy="2"/>
<feGaussianBlur stdDeviation="1.5"/>
<feColorMatrix type="matrix" values="0 0 0 0 0 0 0 0 0 0 0 0 0 0 0 0 0 0 0.1 0"/>
<feBlend mode="normal" in2="BackgroundImageFix" result="effect1_dropShadow_63_2371"/>
<feColorMatrix in="SourceAlpha" type="matrix" values="0 0 0 0 0 0 0 0 0 0 0 0 0 0 0 0 0 0 127 0" result="hardAlpha"/>
<feOffset dy="6"/>
<feGaussianBlur stdDeviation="3"/>
<feColorMatrix type="matrix" values="0 0 0 0 0 0 0 0 0 0 0 0 0 0 0 0 0 0 0.09 0"/>
<feBlend mode="normal" in2="effect1_dropShadow_63_2371" result="effect2_dropShadow_63_2371"/>
<feColorMatrix in="SourceAlpha" type="matrix" values="0 0 0 0 0 0 0 0 0 0 0 0 0 0 0 0 0 0 127 0" result="hardAlpha"/>
<feOffset dy="14"/>
<feGaussianBlur stdDeviation="4"/>
<feColorMatrix type="matrix" values="0 0 0 0 0 0 0 0 0 0 0 0 0 0 0 0 0 0 0.05 0"/>
<feBlend mode="normal" in2="effect2_dropShadow_63_2371" result="effect3_dropShadow_63_2371"/>
<feColorMatrix in="SourceAlpha" type="matrix" values="0 0 0 0 0 0 0 0 0 0 0 0 0 0 0 0 0 0 127 0" result="hardAlpha"/>
<feOffset dy="24"/>
<feGaussianBlur stdDeviation="5"/>
<feColorMatrix type="matrix" values="0 0 0 0 0 0 0 0 0 0 0 0 0 0 0 0 0 0 0.01 0"/>
<feBlend mode="normal" in2="effect3_dropShadow_63_2371" result="effect4_dropShadow_63_2371"/>
<feBlend mode="normal" in="SourceGraphic" in2="effect4_dropShadow_63_2371" result="shape"/>
</filter>
<radialGradient id="paint0_radial_63_2371" cx="0" cy="0" r="1" gradientUnits="userSpaceOnUse" gradientTransform="translate(180.296 110.403) rotate(90) scale(110 180)">
<stop stop-color="#10B981"/>
<stop offset="1" stop-color="#22C55E" stop-opacity="0.1"/>
</radialGradient>
<linearGradient id="paint1_linear_63_2371" x1="248.603" y1="158.431" x2="249.991" y2="174.371" gradientUnits="userSpaceOnUse">
<stop stop-color="#10B981"/>
<stop offset="1" stop-color="#22C55E"/>
</linearGradient>
<linearGradient id="paint2_linear_63_2371" x1="37.6637" y1="148.406" x2="42.5812" y2="166.759" gradientUnits="userSpaceOnUse">
<stop stop-color="#10B981"/>
<stop offset="1" stop-color="#22C55E"/>
</linearGradient>
<linearGradient id="paint3_linear_63_2371" x1="283.304" y1="64.6922" x2="277.892" y2="84.8895" gradientUnits="userSpaceOnUse">
<stop stop-color="#10B981"/>
<stop offset="1" stop-color="#22C55E"/>
</linearGradient>
<linearGradient id="paint4_linear_63_2371" x1="118.585" y1="178.444" x2="113.409" y2="197.763" gradientUnits="userSpaceOnUse">
<stop stop-color="#10B981"/>
<stop offset="1" stop-color="#22C55E"/>
</linearGradient>
<linearGradient id="paint5_linear_63_2371" x1="40.3006" y1="40.2388" x2="40.3006" y2="58.5721" gradientUnits="userSpaceOnUse">
<stop stop-color="#10B981"/>
<stop offset="1" stop-color="#22C55E"/>
</linearGradient>
<linearGradient id="paint6_linear_63_2371" x1="84.3006" y1="84.2388" x2="84.3006" y2="102.572" gradientUnits="userSpaceOnUse">
<stop stop-color="#10B981"/>
<stop offset="1" stop-color="#22C55E"/>
</linearGradient>
<linearGradient id="paint7_linear_63_2371" x1="314.301" y1="138.406" x2="314.301" y2="158.405" gradientUnits="userSpaceOnUse">
<stop stop-color="#10B981"/>
<stop offset="1" stop-color="#22C55E"/>
</linearGradient>
<linearGradient id="paint8_linear_63_2371" x1="181.392" y1="63.7478" x2="181.392" y2="142.914" gradientUnits="userSpaceOnUse">
<stop stop-color="#10B981"/>
<stop offset="1" stop-color="#22C55E"/>
</linearGradient>
</defs>
</svg>
