<svg width="360" height="220" viewBox="0 0 360 220" fill="none" xmlns="http://www.w3.org/2000/svg">
<g clip-path="url(#clip0_63_2402)">
<g filter="url(#filter0_dddd_63_2402)">
<path d="M316.083 121.958H326.917V126.833C326.917 127.132 326.674 127.375 326.375 127.375H316.625C316.326 127.375 316.083 127.132 316.083 126.833V121.958ZM324.208 117.625H326.375C326.674 117.625 326.917 117.867 326.917 118.167V120.875H316.083V118.167C316.083 117.867 316.326 117.625 316.625 117.625H318.792V116.542H319.875V117.625H323.125V116.542H324.208V117.625Z" fill="url(#paint0_linear_63_2402)"/>
</g>
</g>
<g clip-path="url(#clip1_63_2402)">
<g filter="url(#filter1_dddd_63_2402)">
<path d="M145.5 189.25C148.95 189.25 151.75 192.05 151.75 195.5C151.75 198.95 148.95 201.75 145.5 201.75C142.05 201.75 139.25 198.95 139.25 195.5C139.25 192.05 142.05 189.25 145.5 189.25ZM147.71 192.406L144.616 195.5L145.5 196.384L148.594 193.29L147.71 192.406Z" fill="url(#paint1_linear_63_2402)"/>
</g>
</g>
<g clip-path="url(#clip2_63_2402)">
<g filter="url(#filter2_dddd_63_2402)">
<path d="M293.667 170H299C299.736 170 300.333 170.597 300.333 171.333V192.667C300.333 193.403 299.736 194 299 194H275C274.264 194 273.667 193.403 273.667 192.667V171.333C273.667 170.597 274.264 170 275 170H280.333V167.333H283V170H291V167.333H293.667V170ZM276.333 178V191.333H297.667V178H276.333ZM279 180.667H281.667V183.333H279V180.667ZM279 186H281.667V188.667H279V186ZM284.333 180.667H295V183.333H284.333V180.667ZM284.333 186H291V188.667H284.333V186Z" fill="url(#paint2_linear_63_2402)"/>
</g>
</g>
<g clip-path="url(#clip3_63_2402)">
<g filter="url(#filter3_dddd_63_2402)">
<path d="M272.561 84.4437C267.249 85.9545 261.717 82.8729 260.206 77.5608C258.696 72.2486 261.777 66.7175 267.089 65.2066C272.401 63.6958 277.933 66.7773 279.444 72.0895C280.954 77.4016 277.873 82.9328 272.561 84.4437ZM270.787 74.5516L269.419 69.7423L267.495 70.2894L269.41 77.0224L275.181 75.381L274.634 73.4573L270.787 74.5516Z" fill="url(#paint3_linear_63_2402)"/>
</g>
</g>
<path d="M58.5 0V220M93.5 0V220M128.5 0V220M163.5 0V220M198.5 0V220M233.5 0V220M268.5 0V220M303.5 0V220M6.11959e-06 179.5L360 179.5M4.5897e-06 144.5L360 144.5M3.0598e-06 109.5L360 109.5M1.5299e-06 74.5L360 74.5M0 39.5L360 39.5" stroke="url(#paint4_radial_63_2402)"/>
<g clip-path="url(#clip4_63_2402)">
<g filter="url(#filter4_dddd_63_2402)">
<path d="M159.167 64.1666V72.5H142.5C140.199 72.5 138.333 74.3655 138.333 76.6666V143.333C138.333 145.635 140.199 147.5 142.5 147.5H174.811C170.236 141.793 167.5 134.55 167.5 126.667C167.5 108.257 182.424 93.3333 200.833 93.3333C208.716 93.3333 215.96 96.0696 221.667 100.644V76.6666C221.667 74.3655 219.801 72.5 217.5 72.5H200.833V64.1666H192.5V72.5H167.5V64.1666H159.167ZM225.833 126.667C225.833 140.474 214.64 151.667 200.833 151.667C187.026 151.667 175.833 140.474 175.833 126.667C175.833 112.86 187.026 101.667 200.833 101.667C214.64 101.667 225.833 112.86 225.833 126.667ZM196.667 110V128.392L206.22 137.946L212.113 132.054L205 124.941V110H196.667Z" fill="url(#paint5_linear_63_2402)"/>
</g>
</g>
<g clip-path="url(#clip5_63_2402)">
<g filter="url(#filter5_dddd_63_2402)">
<path d="M35.625 82.125V79.375H38.375V82.125H46.625V79.375H49.375V82.125H54.875C55.6344 82.125 56.25 82.7406 56.25 83.5V90.375H53.5V84.875H49.375V87.625H46.625V84.875H38.375V87.625H35.625V84.875H31.5V104.125H39.75V106.875H30.125C29.3656 106.875 28.75 106.259 28.75 105.5V83.5C28.75 82.7406 29.3656 82.125 30.125 82.125H35.625ZM49.375 94.5C46.3375 94.5 43.875 96.9625 43.875 100C43.875 103.038 46.3375 105.5 49.375 105.5C52.4125 105.5 54.875 103.038 54.875 100C54.875 96.9625 52.4125 94.5 49.375 94.5ZM41.125 100C41.125 95.4437 44.8187 91.75 49.375 91.75C53.9313 91.75 57.625 95.4437 57.625 100C57.625 104.556 53.9313 108.25 49.375 108.25C44.8187 108.25 41.125 104.556 41.125 100ZM48 95.875V100.57L51.1527 103.722L53.0973 101.778L50.75 99.4305V95.875H48Z" fill="url(#paint6_linear_63_2402)"/>
</g>
</g>
<g clip-path="url(#clip6_63_2402)">
<g filter="url(#filter6_dddd_63_2402)">
<path d="M105 22.3334C111.44 22.3334 116.667 27.56 116.667 34C116.667 40.44 111.44 45.6667 105 45.6667C98.56 45.6667 93.3333 40.44 93.3333 34C93.3333 27.56 98.56 22.3334 105 22.3334ZM105 43.3334C110.157 43.3334 114.333 39.1567 114.333 34C114.333 28.8434 110.157 24.6667 105 24.6667C99.8433 24.6667 95.6666 28.8434 95.6666 34C95.6666 39.1567 99.8433 43.3334 105 43.3334ZM109.125 28.2253L110.775 29.8753L105 35.6499L103.35 34L109.125 28.2253Z" fill="url(#paint7_linear_63_2402)"/>
</g>
</g>
<g clip-path="url(#clip7_63_2402)">
<g filter="url(#filter7_dddd_63_2402)">
<path d="M69.3573 173.047C64.5969 170.247 63.0079 164.118 65.8081 159.357C68.6083 154.597 74.7373 153.008 79.4976 155.808C84.2579 158.608 85.847 164.737 83.0468 169.498C80.2466 174.258 74.1176 175.847 69.3573 173.047ZM70.3713 171.323C74.1796 173.563 79.0828 172.292 81.3229 168.484C83.5631 164.675 82.2919 159.772 78.4836 157.532C74.6753 155.292 69.7721 156.563 67.532 160.371C65.2918 164.18 66.563 169.083 70.3713 171.323ZM75.2894 164.934L78.7371 166.963L77.7231 168.686L72.5515 165.644L76.1006 159.611L77.8245 160.625L75.2894 164.934Z" fill="url(#paint8_linear_63_2402)"/>
</g>
</g>
<defs>
<filter id="filter0_dddd_63_2402" x="306.083" y="115.542" width="30.8333" height="45.8334" filterUnits="userSpaceOnUse" color-interpolation-filters="sRGB">
<feFlood flood-opacity="0" result="BackgroundImageFix"/>
<feColorMatrix in="SourceAlpha" type="matrix" values="0 0 0 0 0 0 0 0 0 0 0 0 0 0 0 0 0 0 127 0" result="hardAlpha"/>
<feOffset dy="2"/>
<feGaussianBlur stdDeviation="1.5"/>
<feColorMatrix type="matrix" values="0 0 0 0 0 0 0 0 0 0 0 0 0 0 0 0 0 0 0.1 0"/>
<feBlend mode="normal" in2="BackgroundImageFix" result="effect1_dropShadow_63_2402"/>
<feColorMatrix in="SourceAlpha" type="matrix" values="0 0 0 0 0 0 0 0 0 0 0 0 0 0 0 0 0 0 127 0" result="hardAlpha"/>
<feOffset dy="6"/>
<feGaussianBlur stdDeviation="3"/>
<feColorMatrix type="matrix" values="0 0 0 0 0 0 0 0 0 0 0 0 0 0 0 0 0 0 0.09 0"/>
<feBlend mode="normal" in2="effect1_dropShadow_63_2402" result="effect2_dropShadow_63_2402"/>
<feColorMatrix in="SourceAlpha" type="matrix" values="0 0 0 0 0 0 0 0 0 0 0 0 0 0 0 0 0 0 127 0" result="hardAlpha"/>
<feOffset dy="14"/>
<feGaussianBlur stdDeviation="4"/>
<feColorMatrix type="matrix" values="0 0 0 0 0 0 0 0 0 0 0 0 0 0 0 0 0 0 0.05 0"/>
<feBlend mode="normal" in2="effect2_dropShadow_63_2402" result="effect3_dropShadow_63_2402"/>
<feColorMatrix in="SourceAlpha" type="matrix" values="0 0 0 0 0 0 0 0 0 0 0 0 0 0 0 0 0 0 127 0" result="hardAlpha"/>
<feOffset dy="24"/>
<feGaussianBlur stdDeviation="5"/>
<feColorMatrix type="matrix" values="0 0 0 0 0 0 0 0 0 0 0 0 0 0 0 0 0 0 0.01 0"/>
<feBlend mode="normal" in2="effect3_dropShadow_63_2402" result="effect4_dropShadow_63_2402"/>
<feBlend mode="normal" in="SourceGraphic" in2="effect4_dropShadow_63_2402" result="shape"/>
</filter>
<filter id="filter1_dddd_63_2402" x="129.25" y="188.25" width="32.5" height="47.5" filterUnits="userSpaceOnUse" color-interpolation-filters="sRGB">
<feFlood flood-opacity="0" result="BackgroundImageFix"/>
<feColorMatrix in="SourceAlpha" type="matrix" values="0 0 0 0 0 0 0 0 0 0 0 0 0 0 0 0 0 0 127 0" result="hardAlpha"/>
<feOffset dy="2"/>
<feGaussianBlur stdDeviation="1.5"/>
<feColorMatrix type="matrix" values="0 0 0 0 0 0 0 0 0 0 0 0 0 0 0 0 0 0 0.1 0"/>
<feBlend mode="normal" in2="BackgroundImageFix" result="effect1_dropShadow_63_2402"/>
<feColorMatrix in="SourceAlpha" type="matrix" values="0 0 0 0 0 0 0 0 0 0 0 0 0 0 0 0 0 0 127 0" result="hardAlpha"/>
<feOffset dy="6"/>
<feGaussianBlur stdDeviation="3"/>
<feColorMatrix type="matrix" values="0 0 0 0 0 0 0 0 0 0 0 0 0 0 0 0 0 0 0.09 0"/>
<feBlend mode="normal" in2="effect1_dropShadow_63_2402" result="effect2_dropShadow_63_2402"/>
<feColorMatrix in="SourceAlpha" type="matrix" values="0 0 0 0 0 0 0 0 0 0 0 0 0 0 0 0 0 0 127 0" result="hardAlpha"/>
<feOffset dy="14"/>
<feGaussianBlur stdDeviation="4"/>
<feColorMatrix type="matrix" values="0 0 0 0 0 0 0 0 0 0 0 0 0 0 0 0 0 0 0.05 0"/>
<feBlend mode="normal" in2="effect2_dropShadow_63_2402" result="effect3_dropShadow_63_2402"/>
<feColorMatrix in="SourceAlpha" type="matrix" values="0 0 0 0 0 0 0 0 0 0 0 0 0 0 0 0 0 0 127 0" result="hardAlpha"/>
<feOffset dy="24"/>
<feGaussianBlur stdDeviation="5"/>
<feColorMatrix type="matrix" values="0 0 0 0 0 0 0 0 0 0 0 0 0 0 0 0 0 0 0.01 0"/>
<feBlend mode="normal" in2="effect3_dropShadow_63_2402" result="effect4_dropShadow_63_2402"/>
<feBlend mode="normal" in="SourceGraphic" in2="effect4_dropShadow_63_2402" result="shape"/>
</filter>
<filter id="filter2_dddd_63_2402" x="263.667" y="166.333" width="46.6667" height="61.6666" filterUnits="userSpaceOnUse" color-interpolation-filters="sRGB">
<feFlood flood-opacity="0" result="BackgroundImageFix"/>
<feColorMatrix in="SourceAlpha" type="matrix" values="0 0 0 0 0 0 0 0 0 0 0 0 0 0 0 0 0 0 127 0" result="hardAlpha"/>
<feOffset dy="2"/>
<feGaussianBlur stdDeviation="1.5"/>
<feColorMatrix type="matrix" values="0 0 0 0 0 0 0 0 0 0 0 0 0 0 0 0 0 0 0.1 0"/>
<feBlend mode="normal" in2="BackgroundImageFix" result="effect1_dropShadow_63_2402"/>
<feColorMatrix in="SourceAlpha" type="matrix" values="0 0 0 0 0 0 0 0 0 0 0 0 0 0 0 0 0 0 127 0" result="hardAlpha"/>
<feOffset dy="6"/>
<feGaussianBlur stdDeviation="3"/>
<feColorMatrix type="matrix" values="0 0 0 0 0 0 0 0 0 0 0 0 0 0 0 0 0 0 0.09 0"/>
<feBlend mode="normal" in2="effect1_dropShadow_63_2402" result="effect2_dropShadow_63_2402"/>
<feColorMatrix in="SourceAlpha" type="matrix" values="0 0 0 0 0 0 0 0 0 0 0 0 0 0 0 0 0 0 127 0" result="hardAlpha"/>
<feOffset dy="14"/>
<feGaussianBlur stdDeviation="4"/>
<feColorMatrix type="matrix" values="0 0 0 0 0 0 0 0 0 0 0 0 0 0 0 0 0 0 0.05 0"/>
<feBlend mode="normal" in2="effect2_dropShadow_63_2402" result="effect3_dropShadow_63_2402"/>
<feColorMatrix in="SourceAlpha" type="matrix" values="0 0 0 0 0 0 0 0 0 0 0 0 0 0 0 0 0 0 127 0" result="hardAlpha"/>
<feOffset dy="24"/>
<feGaussianBlur stdDeviation="5"/>
<feColorMatrix type="matrix" values="0 0 0 0 0 0 0 0 0 0 0 0 0 0 0 0 0 0 0.01 0"/>
<feBlend mode="normal" in2="effect3_dropShadow_63_2402" result="effect4_dropShadow_63_2402"/>
<feBlend mode="normal" in="SourceGraphic" in2="effect4_dropShadow_63_2402" result="shape"/>
</filter>
<filter id="filter3_dddd_63_2402" x="249.822" y="63.8226" width="40.0051" height="55.0051" filterUnits="userSpaceOnUse" color-interpolation-filters="sRGB">
<feFlood flood-opacity="0" result="BackgroundImageFix"/>
<feColorMatrix in="SourceAlpha" type="matrix" values="0 0 0 0 0 0 0 0 0 0 0 0 0 0 0 0 0 0 127 0" result="hardAlpha"/>
<feOffset dy="2"/>
<feGaussianBlur stdDeviation="1.5"/>
<feColorMatrix type="matrix" values="0 0 0 0 0 0 0 0 0 0 0 0 0 0 0 0 0 0 0.1 0"/>
<feBlend mode="normal" in2="BackgroundImageFix" result="effect1_dropShadow_63_2402"/>
<feColorMatrix in="SourceAlpha" type="matrix" values="0 0 0 0 0 0 0 0 0 0 0 0 0 0 0 0 0 0 127 0" result="hardAlpha"/>
<feOffset dy="6"/>
<feGaussianBlur stdDeviation="3"/>
<feColorMatrix type="matrix" values="0 0 0 0 0 0 0 0 0 0 0 0 0 0 0 0 0 0 0.09 0"/>
<feBlend mode="normal" in2="effect1_dropShadow_63_2402" result="effect2_dropShadow_63_2402"/>
<feColorMatrix in="SourceAlpha" type="matrix" values="0 0 0 0 0 0 0 0 0 0 0 0 0 0 0 0 0 0 127 0" result="hardAlpha"/>
<feOffset dy="14"/>
<feGaussianBlur stdDeviation="4"/>
<feColorMatrix type="matrix" values="0 0 0 0 0 0 0 0 0 0 0 0 0 0 0 0 0 0 0.05 0"/>
<feBlend mode="normal" in2="effect2_dropShadow_63_2402" result="effect3_dropShadow_63_2402"/>
<feColorMatrix in="SourceAlpha" type="matrix" values="0 0 0 0 0 0 0 0 0 0 0 0 0 0 0 0 0 0 127 0" result="hardAlpha"/>
<feOffset dy="24"/>
<feGaussianBlur stdDeviation="5"/>
<feColorMatrix type="matrix" values="0 0 0 0 0 0 0 0 0 0 0 0 0 0 0 0 0 0 0.01 0"/>
<feBlend mode="normal" in2="effect3_dropShadow_63_2402" result="effect4_dropShadow_63_2402"/>
<feBlend mode="normal" in="SourceGraphic" in2="effect4_dropShadow_63_2402" result="shape"/>
</filter>
<filter id="filter4_dddd_63_2402" x="128.333" y="63.1666" width="107.5" height="122.5" filterUnits="userSpaceOnUse" color-interpolation-filters="sRGB">
<feFlood flood-opacity="0" result="BackgroundImageFix"/>
<feColorMatrix in="SourceAlpha" type="matrix" values="0 0 0 0 0 0 0 0 0 0 0 0 0 0 0 0 0 0 127 0" result="hardAlpha"/>
<feOffset dy="2"/>
<feGaussianBlur stdDeviation="1.5"/>
<feColorMatrix type="matrix" values="0 0 0 0 0 0 0 0 0 0 0 0 0 0 0 0 0 0 0.1 0"/>
<feBlend mode="normal" in2="BackgroundImageFix" result="effect1_dropShadow_63_2402"/>
<feColorMatrix in="SourceAlpha" type="matrix" values="0 0 0 0 0 0 0 0 0 0 0 0 0 0 0 0 0 0 127 0" result="hardAlpha"/>
<feOffset dy="6"/>
<feGaussianBlur stdDeviation="3"/>
<feColorMatrix type="matrix" values="0 0 0 0 0 0 0 0 0 0 0 0 0 0 0 0 0 0 0.09 0"/>
<feBlend mode="normal" in2="effect1_dropShadow_63_2402" result="effect2_dropShadow_63_2402"/>
<feColorMatrix in="SourceAlpha" type="matrix" values="0 0 0 0 0 0 0 0 0 0 0 0 0 0 0 0 0 0 127 0" result="hardAlpha"/>
<feOffset dy="14"/>
<feGaussianBlur stdDeviation="4"/>
<feColorMatrix type="matrix" values="0 0 0 0 0 0 0 0 0 0 0 0 0 0 0 0 0 0 0.05 0"/>
<feBlend mode="normal" in2="effect2_dropShadow_63_2402" result="effect3_dropShadow_63_2402"/>
<feColorMatrix in="SourceAlpha" type="matrix" values="0 0 0 0 0 0 0 0 0 0 0 0 0 0 0 0 0 0 127 0" result="hardAlpha"/>
<feOffset dy="24"/>
<feGaussianBlur stdDeviation="5"/>
<feColorMatrix type="matrix" values="0 0 0 0 0 0 0 0 0 0 0 0 0 0 0 0 0 0 0.01 0"/>
<feBlend mode="normal" in2="effect3_dropShadow_63_2402" result="effect4_dropShadow_63_2402"/>
<feBlend mode="normal" in="SourceGraphic" in2="effect4_dropShadow_63_2402" result="shape"/>
</filter>
<filter id="filter5_dddd_63_2402" x="18.75" y="78.375" width="48.875" height="63.875" filterUnits="userSpaceOnUse" color-interpolation-filters="sRGB">
<feFlood flood-opacity="0" result="BackgroundImageFix"/>
<feColorMatrix in="SourceAlpha" type="matrix" values="0 0 0 0 0 0 0 0 0 0 0 0 0 0 0 0 0 0 127 0" result="hardAlpha"/>
<feOffset dy="2"/>
<feGaussianBlur stdDeviation="1.5"/>
<feColorMatrix type="matrix" values="0 0 0 0 0 0 0 0 0 0 0 0 0 0 0 0 0 0 0.1 0"/>
<feBlend mode="normal" in2="BackgroundImageFix" result="effect1_dropShadow_63_2402"/>
<feColorMatrix in="SourceAlpha" type="matrix" values="0 0 0 0 0 0 0 0 0 0 0 0 0 0 0 0 0 0 127 0" result="hardAlpha"/>
<feOffset dy="6"/>
<feGaussianBlur stdDeviation="3"/>
<feColorMatrix type="matrix" values="0 0 0 0 0 0 0 0 0 0 0 0 0 0 0 0 0 0 0.09 0"/>
<feBlend mode="normal" in2="effect1_dropShadow_63_2402" result="effect2_dropShadow_63_2402"/>
<feColorMatrix in="SourceAlpha" type="matrix" values="0 0 0 0 0 0 0 0 0 0 0 0 0 0 0 0 0 0 127 0" result="hardAlpha"/>
<feOffset dy="14"/>
<feGaussianBlur stdDeviation="4"/>
<feColorMatrix type="matrix" values="0 0 0 0 0 0 0 0 0 0 0 0 0 0 0 0 0 0 0.05 0"/>
<feBlend mode="normal" in2="effect2_dropShadow_63_2402" result="effect3_dropShadow_63_2402"/>
<feColorMatrix in="SourceAlpha" type="matrix" values="0 0 0 0 0 0 0 0 0 0 0 0 0 0 0 0 0 0 127 0" result="hardAlpha"/>
<feOffset dy="24"/>
<feGaussianBlur stdDeviation="5"/>
<feColorMatrix type="matrix" values="0 0 0 0 0 0 0 0 0 0 0 0 0 0 0 0 0 0 0.01 0"/>
<feBlend mode="normal" in2="effect3_dropShadow_63_2402" result="effect4_dropShadow_63_2402"/>
<feBlend mode="normal" in="SourceGraphic" in2="effect4_dropShadow_63_2402" result="shape"/>
</filter>
<filter id="filter6_dddd_63_2402" x="83.3333" y="21.3334" width="43.3333" height="58.3334" filterUnits="userSpaceOnUse" color-interpolation-filters="sRGB">
<feFlood flood-opacity="0" result="BackgroundImageFix"/>
<feColorMatrix in="SourceAlpha" type="matrix" values="0 0 0 0 0 0 0 0 0 0 0 0 0 0 0 0 0 0 127 0" result="hardAlpha"/>
<feOffset dy="2"/>
<feGaussianBlur stdDeviation="1.5"/>
<feColorMatrix type="matrix" values="0 0 0 0 0 0 0 0 0 0 0 0 0 0 0 0 0 0 0.1 0"/>
<feBlend mode="normal" in2="BackgroundImageFix" result="effect1_dropShadow_63_2402"/>
<feColorMatrix in="SourceAlpha" type="matrix" values="0 0 0 0 0 0 0 0 0 0 0 0 0 0 0 0 0 0 127 0" result="hardAlpha"/>
<feOffset dy="6"/>
<feGaussianBlur stdDeviation="3"/>
<feColorMatrix type="matrix" values="0 0 0 0 0 0 0 0 0 0 0 0 0 0 0 0 0 0 0.09 0"/>
<feBlend mode="normal" in2="effect1_dropShadow_63_2402" result="effect2_dropShadow_63_2402"/>
<feColorMatrix in="SourceAlpha" type="matrix" values="0 0 0 0 0 0 0 0 0 0 0 0 0 0 0 0 0 0 127 0" result="hardAlpha"/>
<feOffset dy="14"/>
<feGaussianBlur stdDeviation="4"/>
<feColorMatrix type="matrix" values="0 0 0 0 0 0 0 0 0 0 0 0 0 0 0 0 0 0 0.05 0"/>
<feBlend mode="normal" in2="effect2_dropShadow_63_2402" result="effect3_dropShadow_63_2402"/>
<feColorMatrix in="SourceAlpha" type="matrix" values="0 0 0 0 0 0 0 0 0 0 0 0 0 0 0 0 0 0 127 0" result="hardAlpha"/>
<feOffset dy="24"/>
<feGaussianBlur stdDeviation="5"/>
<feColorMatrix type="matrix" values="0 0 0 0 0 0 0 0 0 0 0 0 0 0 0 0 0 0 0.01 0"/>
<feBlend mode="normal" in2="effect3_dropShadow_63_2402" result="effect4_dropShadow_63_2402"/>
<feBlend mode="normal" in="SourceGraphic" in2="effect4_dropShadow_63_2402" result="shape"/>
</filter>
<filter id="filter7_dddd_63_2402" x="54.4258" y="153.426" width="40.0032" height="55.0032" filterUnits="userSpaceOnUse" color-interpolation-filters="sRGB">
<feFlood flood-opacity="0" result="BackgroundImageFix"/>
<feColorMatrix in="SourceAlpha" type="matrix" values="0 0 0 0 0 0 0 0 0 0 0 0 0 0 0 0 0 0 127 0" result="hardAlpha"/>
<feOffset dy="2"/>
<feGaussianBlur stdDeviation="1.5"/>
<feColorMatrix type="matrix" values="0 0 0 0 0 0 0 0 0 0 0 0 0 0 0 0 0 0 0.1 0"/>
<feBlend mode="normal" in2="BackgroundImageFix" result="effect1_dropShadow_63_2402"/>
<feColorMatrix in="SourceAlpha" type="matrix" values="0 0 0 0 0 0 0 0 0 0 0 0 0 0 0 0 0 0 127 0" result="hardAlpha"/>
<feOffset dy="6"/>
<feGaussianBlur stdDeviation="3"/>
<feColorMatrix type="matrix" values="0 0 0 0 0 0 0 0 0 0 0 0 0 0 0 0 0 0 0.09 0"/>
<feBlend mode="normal" in2="effect1_dropShadow_63_2402" result="effect2_dropShadow_63_2402"/>
<feColorMatrix in="SourceAlpha" type="matrix" values="0 0 0 0 0 0 0 0 0 0 0 0 0 0 0 0 0 0 127 0" result="hardAlpha"/>
<feOffset dy="14"/>
<feGaussianBlur stdDeviation="4"/>
<feColorMatrix type="matrix" values="0 0 0 0 0 0 0 0 0 0 0 0 0 0 0 0 0 0 0.05 0"/>
<feBlend mode="normal" in2="effect2_dropShadow_63_2402" result="effect3_dropShadow_63_2402"/>
<feColorMatrix in="SourceAlpha" type="matrix" values="0 0 0 0 0 0 0 0 0 0 0 0 0 0 0 0 0 0 127 0" result="hardAlpha"/>
<feOffset dy="24"/>
<feGaussianBlur stdDeviation="5"/>
<feColorMatrix type="matrix" values="0 0 0 0 0 0 0 0 0 0 0 0 0 0 0 0 0 0 0.01 0"/>
<feBlend mode="normal" in2="effect3_dropShadow_63_2402" result="effect4_dropShadow_63_2402"/>
<feBlend mode="normal" in="SourceGraphic" in2="effect4_dropShadow_63_2402" result="shape"/>
</filter>
<linearGradient id="paint0_linear_63_2402" x1="321.5" y1="116.542" x2="321.5" y2="127.375" gradientUnits="userSpaceOnUse">
<stop stop-color="#F59E0B"/>
<stop offset="1" stop-color="#F97316"/>
</linearGradient>
<linearGradient id="paint1_linear_63_2402" x1="145.5" y1="189.25" x2="145.5" y2="201.75" gradientUnits="userSpaceOnUse">
<stop stop-color="#F59E0B"/>
<stop offset="1" stop-color="#F97316"/>
</linearGradient>
<linearGradient id="paint2_linear_63_2402" x1="287" y1="167.333" x2="287" y2="194" gradientUnits="userSpaceOnUse">
<stop stop-color="#F59E0B"/>
<stop offset="1" stop-color="#F97316"/>
</linearGradient>
<linearGradient id="paint3_linear_63_2402" x1="267.089" y1="65.2066" x2="272.561" y2="84.4437" gradientUnits="userSpaceOnUse">
<stop stop-color="#F59E0B"/>
<stop offset="1" stop-color="#F97316"/>
</linearGradient>
<radialGradient id="paint4_radial_63_2402" cx="0" cy="0" r="1" gradientUnits="userSpaceOnUse" gradientTransform="translate(180 110) rotate(90) scale(110 180)">
<stop stop-color="#F97316" stop-opacity="0.4"/>
<stop offset="1" stop-color="#F59E0B" stop-opacity="0.1"/>
</radialGradient>
<linearGradient id="paint5_linear_63_2402" x1="182.083" y1="64.1666" x2="182.083" y2="151.667" gradientUnits="userSpaceOnUse">
<stop stop-color="#F59E0B"/>
<stop offset="1" stop-color="#F97316"/>
</linearGradient>
<linearGradient id="paint6_linear_63_2402" x1="43.1875" y1="79.375" x2="43.1875" y2="108.25" gradientUnits="userSpaceOnUse">
<stop stop-color="#F59E0B"/>
<stop offset="1" stop-color="#F97316"/>
</linearGradient>
<linearGradient id="paint7_linear_63_2402" x1="105" y1="22.3334" x2="105" y2="45.6667" gradientUnits="userSpaceOnUse">
<stop stop-color="#F59E0B"/>
<stop offset="1" stop-color="#F97316"/>
</linearGradient>
<linearGradient id="paint8_linear_63_2402" x1="79.4976" y1="155.808" x2="69.3573" y2="173.047" gradientUnits="userSpaceOnUse">
<stop stop-color="#F59E0B"/>
<stop offset="1" stop-color="#F97316"/>
</linearGradient>
<clipPath id="clip0_63_2402">
<rect width="13" height="13" fill="white" transform="translate(315 116)"/>
</clipPath>
<clipPath id="clip1_63_2402">
<rect width="15" height="15" fill="white" transform="translate(138 188)"/>
</clipPath>
<clipPath id="clip2_63_2402">
<rect width="32" height="32" fill="white" transform="translate(271 166)"/>
</clipPath>
<clipPath id="clip3_63_2402">
<rect width="24" height="24" fill="white" transform="translate(255 66.5657) rotate(-15.8766)"/>
</clipPath>
<clipPath id="clip4_63_2402">
<rect width="100" height="100" fill="white" transform="translate(130 60)"/>
</clipPath>
<clipPath id="clip5_63_2402">
<rect width="33" height="33" fill="white" transform="translate(26 78)"/>
</clipPath>
<clipPath id="clip6_63_2402">
<rect width="28" height="28" fill="white" transform="translate(91 20)"/>
</clipPath>
<clipPath id="clip7_63_2402">
<rect width="24" height="24" fill="white" transform="translate(70.1685 148) rotate(30.4655)"/>
</clipPath>
</defs>
</svg>
